0
SECTION
2
ENTITIES
999
Created by Metasequoia
0
3DFACE
8
layer1
62
1
10
105.86010
20
-6.36641
30
-0.00000
11
99.82442
21
-8.04131
31
-0.00000
12
105.86010
22
-8.04131
32
-0.00000
13
105.86010
23
-8.04131
33
-0.00000
0
3DFACE
8
layer1
62
1
10
105.86010
20
-0.57627
30
-0.00000
11
99.82442
21
-8.04131
31
-0.00000
12
105.86010
22
-6.36641
32
-0.00000
13
105.86010
23
-6.36641
33
-0.00000
0
3DFACE
8
layer1
62
1
10
116.57410
20
-6.36641
30
-0.00000
11
105.86010
21
-0.57627
31
-0.00000
12
105.86010
22
-6.36641
32
-0.00000
13
105.86010
23
-6.36641
33
-0.00000
0
3DFACE
8
layer1
62
1
10
122.60980
20
-6.36641
30
-0.00000
11
105.86010
21
-0.57627
31
-0.00000
12
116.57410
22
-6.36641
32
-0.00000
13
116.57410
23
-6.36641
33
-0.00000
0
3DFACE
8
layer1
62
1
10
116.57410
20
-32.93574
30
-0.00000
11
122.60980
21
-6.36641
31
-0.00000
12
116.57410
22
-6.36641
32
-0.00000
13
116.57410
23
-6.36641
33
-0.00000
0
3DFACE
8
layer1
62
1
10
122.60980
20
-12.77969
30
-0.00000
11
122.60980
21
-6.36641
31
-0.00000
12
116.57410
22
-32.93574
32
-0.00000
13
116.57410
23
-32.93574
33
-0.00000
0
3DFACE
8
layer1
62
1
10
122.60980
20
-18.56973
30
-0.00000
11
122.60980
21
-12.77969
31
-0.00000
12
116.57410
22
-32.93574
32
-0.00000
13
116.57410
23
-32.93574
33
-0.00000
0
3DFACE
8
layer1
62
1
10
147.49510
20
-12.77969
30
-0.00000
11
122.60980
21
-12.77969
31
-0.00000
12
122.60980
22
-18.56973
32
-0.00000
13
122.60980
23
-18.56973
33
-0.00000
0
3DFACE
8
layer1
62
1
10
147.49510
20
-18.56973
30
-0.00000
11
147.49510
21
-12.77969
31
-0.00000
12
122.60980
22
-18.56973
32
-0.00000
13
122.60980
23
-18.56973
33
-0.00000
0
3DFACE
8
layer1
62
1
10
116.57410
20
-12.77969
30
-0.00000
11
91.92803
21
-18.56973
31
-0.00000
12
116.57410
22
-18.56973
32
-0.00000
13
116.57410
23
-18.56973
33
-0.00000
0
3DFACE
8
layer1
62
1
10
116.57410
20
-6.36641
30
-0.00000
11
116.57410
21
-12.77969
31
-0.00000
12
116.57410
22
-18.56973
32
-0.00000
13
116.57410
23
-18.56973
33
-0.00000
0
3DFACE
8
layer1
62
1
10
116.57410
20
-32.93574
30
-0.00000
11
116.57410
21
-6.36641
31
-0.00000
12
116.57410
22
-18.56973
32
-0.00000
13
116.57410
23
-18.56973
33
-0.00000
0
3DFACE
8
layer1
62
1
10
133.56320
20
15.40830
30
0.00000
11
133.56320
21
-8.99844
31
-0.00000
12
139.59880
22
21.19844
32
0.00000
13
139.59880
23
21.19844
33
0.00000
0
3DFACE
8
layer1
62
1
10
133.56320
20
-6.36641
30
-0.00000
11
133.56320
21
-8.99844
31
-0.00000
12
133.56320
22
15.40830
32
0.00000
13
133.56320
23
15.40830
33
0.00000
0
3DFACE
8
layer1
62
1
10
133.56320
20
-0.57627
30
-0.00000
11
133.56320
21
-6.36641
31
-0.00000
12
133.56320
22
15.40830
32
0.00000
13
133.56320
23
15.40830
33
0.00000
0
3DFACE
8
layer1
62
1
10
122.60980
20
-6.36641
30
-0.00000
11
133.56320
21
-6.36641
31
-0.00000
12
133.56320
22
-0.57627
32
-0.00000
13
133.56320
23
-0.57627
33
-0.00000
0
3DFACE
8
layer1
62
1
10
105.86010
20
-0.57627
30
-0.00000
11
122.60980
21
-6.36641
31
-0.00000
12
133.56320
22
-0.57627
32
-0.00000
13
133.56320
23
-0.57627
33
-0.00000
0
3DFACE
8
layer1
62
1
10
99.82442
20
21.19844
30
0.00000
11
133.56320
21
15.40830
31
0.00000
12
139.59880
22
21.19844
32
0.00000
13
139.59880
23
21.19844
33
0.00000
0
3DFACE
8
layer1
62
1
10
105.86010
20
15.40830
30
0.00000
11
133.56320
21
15.40830
31
0.00000
12
99.82442
22
21.19844
32
0.00000
13
99.82442
23
21.19844
33
0.00000
0
3DFACE
8
layer1
62
1
10
99.82442
20
-8.04131
30
-0.00000
11
105.86010
21
15.40830
31
0.00000
12
99.82442
22
21.19844
32
0.00000
13
99.82442
23
21.19844
33
0.00000
0
3DFACE
8
layer1
62
1
10
105.86010
20
10.43076
30
0.00000
11
105.86010
21
15.40830
31
0.00000
12
99.82442
22
-8.04131
32
-0.00000
13
99.82442
23
-8.04131
33
-0.00000
0
3DFACE
8
layer1
62
1
10
105.86010
20
4.64062
30
0.00000
11
105.86010
21
10.43076
31
0.00000
12
99.82442
22
-8.04131
32
-0.00000
13
99.82442
23
-8.04131
33
-0.00000
0
3DFACE
8
layer1
62
1
10
133.56320
20
10.43076
30
0.00000
11
105.86010
21
10.43076
31
0.00000
12
105.86010
22
4.64062
32
0.00000
13
105.86010
23
4.64062
33
0.00000
0
3DFACE
8
layer1
62
1
10
133.56320
20
4.64062
30
0.00000
11
133.56320
21
10.43076
31
0.00000
12
105.86010
22
4.64062
32
0.00000
13
105.86010
23
4.64062
33
0.00000
0
3DFACE
8
layer1
62
1
10
133.56320
20
15.40830
30
0.00000
11
133.56320
21
10.43076
31
0.00000
12
133.56320
22
4.64062
32
0.00000
13
133.56320
23
4.64062
33
0.00000
0
3DFACE
8
layer1
62
1
10
133.56320
20
-0.57627
30
-0.00000
11
133.56320
21
15.40830
31
0.00000
12
133.56320
22
4.64062
32
0.00000
13
133.56320
23
4.64062
33
0.00000
0
3DFACE
8
layer1
62
1
10
122.60980
20
-32.93574
30
-0.00000
11
122.60980
21
-18.56973
31
-0.00000
12
116.57410
22
-32.93574
32
-0.00000
13
116.57410
23
-32.93574
33
-0.00000
0
3DFACE
8
layer1
62
1
10
91.92803
20
-12.77969
30
-0.00000
11
91.92803
21
-18.56973
31
-0.00000
12
116.57410
22
-12.77969
32
-0.00000
13
116.57410
23
-12.77969
33
-0.00000
0
3DFACE
8
layer1
62
1
10
105.86010
20
4.64062
30
0.00000
11
99.82442
21
-8.04131
31
-0.00000
12
105.86010
22
-0.57627
32
-0.00000
13
105.86010
23
-0.57627
33
-0.00000
0
3DFACE
8
layer1
62
1
10
139.59880
20
-8.99844
30
-0.00000
11
139.59880
21
21.19844
31
0.00000
12
133.56320
22
-8.99844
32
-0.00000
13
133.56320
23
-8.99844
33
-0.00000
0
3DFACE
8
layer1
62
1
10
105.86010
20
-8.04131
30
25.00000
11
99.82442
21
-8.04131
31
25.00000
12
105.86010
22
-6.36641
32
25.00000
13
105.86010
23
-6.36641
33
25.00000
0
3DFACE
8
layer1
62
1
10
105.86010
20
-6.36641
30
25.00000
11
99.82442
21
-8.04131
31
25.00000
12
105.86010
22
-0.57627
32
25.00000
13
105.86010
23
-0.57627
33
25.00000
0
3DFACE
8
layer1
62
1
10
105.86010
20
-6.36641
30
25.00000
11
105.86010
21
-0.57627
31
25.00000
12
116.57410
22
-6.36641
32
25.00000
13
116.57410
23
-6.36641
33
25.00000
0
3DFACE
8
layer1
62
1
10
116.57410
20
-6.36641
30
25.00000
11
105.86010
21
-0.57627
31
25.00000
12
122.60980
22
-6.36641
32
25.00000
13
122.60980
23
-6.36641
33
25.00000
0
3DFACE
8
layer1
62
1
10
116.57410
20
-6.36641
30
25.00000
11
122.60980
21
-6.36641
31
25.00000
12
116.57410
22
-32.93574
32
25.00000
13
116.57410
23
-32.93574
33
25.00000
0
3DFACE
8
layer1
62
1
10
116.57410
20
-32.93574
30
25.00000
11
122.60980
21
-6.36641
31
25.00000
12
122.60980
22
-12.77969
32
25.00000
13
122.60980
23
-12.77969
33
25.00000
0
3DFACE
8
layer1
62
1
10
116.57410
20
-32.93574
30
25.00000
11
122.60980
21
-12.77969
31
25.00000
12
122.60980
22
-18.56973
32
25.00000
13
122.60980
23
-18.56973
33
25.00000
0
3DFACE
8
layer1
62
1
10
122.60980
20
-18.56973
30
25.00000
11
122.60980
21
-12.77969
31
25.00000
12
147.49510
22
-12.77969
32
25.00000
13
147.49510
23
-12.77969
33
25.00000
0
3DFACE
8
layer1
62
1
10
122.60980
20
-18.56973
30
25.00000
11
147.49510
21
-12.77969
31
25.00000
12
147.49510
22
-18.56973
32
25.00000
13
147.49510
23
-18.56973
33
25.00000
0
3DFACE
8
layer1
62
1
10
116.57410
20
-18.56973
30
25.00000
11
91.92803
21
-18.56973
31
25.00000
12
116.57410
22
-12.77969
32
25.00000
13
116.57410
23
-12.77969
33
25.00000
0
3DFACE
8
layer1
62
1
10
116.57410
20
-18.56973
30
25.00000
11
116.57410
21
-12.77969
31
25.00000
12
116.57410
22
-6.36641
32
25.00000
13
116.57410
23
-6.36641
33
25.00000
0
3DFACE
8
layer1
62
1
10
116.57410
20
-18.56973
30
25.00000
11
116.57410
21
-6.36641
31
25.00000
12
116.57410
22
-32.93574
32
25.00000
13
116.57410
23
-32.93574
33
25.00000
0
3DFACE
8
layer1
62
1
10
139.59880
20
21.19844
30
25.00000
11
133.56320
21
-8.99844
31
25.00000
12
133.56320
22
15.40830
32
25.00000
13
133.56320
23
15.40830
33
25.00000
0
3DFACE
8
layer1
62
1
10
133.56320
20
15.40830
30
25.00000
11
133.56320
21
-8.99844
31
25.00000
12
133.56320
22
-6.36641
32
25.00000
13
133.56320
23
-6.36641
33
25.00000
0
3DFACE
8
layer1
62
1
10
133.56320
20
15.40830
30
25.00000
11
133.56320
21
-6.36641
31
25.00000
12
133.56320
22
-0.57627
32
25.00000
13
133.56320
23
-0.57627
33
25.00000
0
3DFACE
8
layer1
62
1
10
133.56320
20
-0.57627
30
25.00000
11
133.56320
21
-6.36641
31
25.00000
12
122.60980
22
-6.36641
32
25.00000
13
122.60980
23
-6.36641
33
25.00000
0
3DFACE
8
layer1
62
1
10
133.56320
20
-0.57627
30
25.00000
11
122.60980
21
-6.36641
31
25.00000
12
105.86010
22
-0.57627
32
25.00000
13
105.86010
23
-0.57627
33
25.00000
0
3DFACE
8
layer1
62
1
10
139.59880
20
21.19844
30
25.00000
11
133.56320
21
15.40830
31
25.00000
12
99.82442
22
21.19844
32
25.00000
13
99.82442
23
21.19844
33
25.00000
0
3DFACE
8
layer1
62
1
10
99.82442
20
21.19844
30
25.00000
11
133.56320
21
15.40830
31
25.00000
12
105.86010
22
15.40830
32
25.00000
13
105.86010
23
15.40830
33
25.00000
0
3DFACE
8
layer1
62
1
10
99.82442
20
21.19844
30
25.00000
11
105.86010
21
15.40830
31
25.00000
12
99.82442
22
-8.04131
32
25.00000
13
99.82442
23
-8.04131
33
25.00000
0
3DFACE
8
layer1
62
1
10
99.82442
20
-8.04131
30
25.00000
11
105.86010
21
15.40830
31
25.00000
12
105.86010
22
10.43076
32
25.00000
13
105.86010
23
10.43076
33
25.00000
0
3DFACE
8
layer1
62
1
10
99.82442
20
-8.04131
30
25.00000
11
105.86010
21
10.43076
31
25.00000
12
105.86010
22
4.64062
32
25.00000
13
105.86010
23
4.64062
33
25.00000
0
3DFACE
8
layer1
62
1
10
105.86010
20
4.64062
30
25.00000
11
105.86010
21
10.43076
31
25.00000
12
133.56320
22
10.43076
32
25.00000
13
133.56320
23
10.43076
33
25.00000
0
3DFACE
8
layer1
62
1
10
105.86010
20
4.64062
30
25.00000
11
133.56320
21
10.43076
31
25.00000
12
133.56320
22
4.64062
32
25.00000
13
133.56320
23
4.64062
33
25.00000
0
3DFACE
8
layer1
62
1
10
133.56320
20
4.64062
30
25.00000
11
133.56320
21
10.43076
31
25.00000
12
133.56320
22
15.40830
32
25.00000
13
133.56320
23
15.40830
33
25.00000
0
3DFACE
8
layer1
62
1
10
133.56320
20
4.64062
30
25.00000
11
133.56320
21
15.40830
31
25.00000
12
133.56320
22
-0.57627
32
25.00000
13
133.56320
23
-0.57627
33
25.00000
0
3DFACE
8
layer1
62
1
10
116.57410
20
-32.93574
30
25.00000
11
122.60980
21
-18.56973
31
25.00000
12
122.60980
22
-32.93574
32
25.00000
13
122.60980
23
-32.93574
33
25.00000
0
3DFACE
8
layer1
62
1
10
116.57410
20
-12.77969
30
25.00000
11
91.92803
21
-18.56973
31
25.00000
12
91.92803
22
-12.77969
32
25.00000
13
91.92803
23
-12.77969
33
25.00000
0
3DFACE
8
layer1
62
1
10
105.86010
20
-0.57627
30
25.00000
11
99.82442
21
-8.04131
31
25.00000
12
105.86010
22
4.64062
32
25.00000
13
105.86010
23
4.64062
33
25.00000
0
3DFACE
8
layer1
62
1
10
133.56320
20
-8.99844
30
25.00000
11
139.59880
21
21.19844
31
25.00000
12
139.59880
22
-8.99844
32
25.00000
13
139.59880
23
-8.99844
33
25.00000
0
3DFACE
8
layer1
62
1
10
99.82442
20
21.19844
30
25.00000
11
99.82442
21
-8.04131
31
25.00000
12
99.82442
22
-8.04131
32
-0.00000
13
99.82442
23
21.19844
33
0.00000
0
3DFACE
8
layer1
62
1
10
139.59880
20
21.19844
30
25.00000
11
99.82442
21
21.19844
31
25.00000
12
99.82442
22
21.19844
32
0.00000
13
139.59880
23
21.19844
33
0.00000
0
3DFACE
8
layer1
62
1
10
139.59880
20
-8.99844
30
25.00000
11
139.59880
21
21.19844
31
25.00000
12
139.59880
22
21.19844
32
0.00000
13
139.59880
23
-8.99844
33
-0.00000
0
3DFACE
8
layer1
62
1
10
133.56320
20
-8.99844
30
25.00000
11
139.59880
21
-8.99844
31
25.00000
12
139.59880
22
-8.99844
32
-0.00000
13
133.56320
23
-8.99844
33
-0.00000
0
3DFACE
8
layer1
62
1
10
133.56320
20
-6.36641
30
25.00000
11
133.56320
21
-8.99844
31
25.00000
12
133.56320
22
-8.99844
32
-0.00000
13
133.56320
23
-6.36641
33
-0.00000
0
3DFACE
8
layer1
62
1
10
122.60980
20
-6.36641
30
25.00000
11
133.56320
21
-6.36641
31
25.00000
12
133.56320
22
-6.36641
32
-0.00000
13
122.60980
23
-6.36641
33
-0.00000
0
3DFACE
8
layer1
62
1
10
122.60980
20
-12.77969
30
25.00000
11
122.60980
21
-6.36641
31
25.00000
12
122.60980
22
-6.36641
32
-0.00000
13
122.60980
23
-12.77969
33
-0.00000
0
3DFACE
8
layer1
62
1
10
147.49510
20
-12.77969
30
25.00000
11
122.60980
21
-12.77969
31
25.00000
12
122.60980
22
-12.77969
32
-0.00000
13
147.49510
23
-12.77969
33
-0.00000
0
3DFACE
8
layer1
62
1
10
147.49510
20
-18.56973
30
25.00000
11
147.49510
21
-12.77969
31
25.00000
12
147.49510
22
-12.77969
32
-0.00000
13
147.49510
23
-18.56973
33
-0.00000
0
3DFACE
8
layer1
62
1
10
122.60980
20
-18.56973
30
25.00000
11
147.49510
21
-18.56973
31
25.00000
12
147.49510
22
-18.56973
32
-0.00000
13
122.60980
23
-18.56973
33
-0.00000
0
3DFACE
8
layer1
62
1
10
122.60980
20
-32.93574
30
25.00000
11
122.60980
21
-18.56973
31
25.00000
12
122.60980
22
-18.56973
32
-0.00000
13
122.60980
23
-32.93574
33
-0.00000
0
3DFACE
8
layer1
62
1
10
116.57410
20
-32.93574
30
25.00000
11
122.60980
21
-32.93574
31
25.00000
12
122.60980
22
-32.93574
32
-0.00000
13
116.57410
23
-32.93574
33
-0.00000
0
3DFACE
8
layer1
62
1
10
116.57410
20
-18.56973
30
25.00000
11
116.57410
21
-32.93574
31
25.00000
12
116.57410
22
-32.93574
32
-0.00000
13
116.57410
23
-18.56973
33
-0.00000
0
3DFACE
8
layer1
62
1
10
91.92803
20
-18.56973
30
25.00000
11
116.57410
21
-18.56973
31
25.00000
12
116.57410
22
-18.56973
32
-0.00000
13
91.92803
23
-18.56973
33
-0.00000
0
3DFACE
8
layer1
62
1
10
91.92803
20
-12.77969
30
25.00000
11
91.92803
21
-18.56973
31
25.00000
12
91.92803
22
-18.56973
32
-0.00000
13
91.92803
23
-12.77969
33
-0.00000
0
3DFACE
8
layer1
62
1
10
116.57410
20
-12.77969
30
25.00000
11
91.92803
21
-12.77969
31
25.00000
12
91.92803
22
-12.77969
32
-0.00000
13
116.57410
23
-12.77969
33
-0.00000
0
3DFACE
8
layer1
62
1
10
116.57410
20
-6.36641
30
25.00000
11
116.57410
21
-12.77969
31
25.00000
12
116.57410
22
-12.77969
32
-0.00000
13
116.57410
23
-6.36641
33
-0.00000
0
3DFACE
8
layer1
62
1
10
105.86010
20
-6.36641
30
25.00000
11
116.57410
21
-6.36641
31
25.00000
12
116.57410
22
-6.36641
32
-0.00000
13
105.86010
23
-6.36641
33
-0.00000
0
3DFACE
8
layer1
62
1
10
105.86010
20
-8.04131
30
25.00000
11
105.86010
21
-6.36641
31
25.00000
12
105.86010
22
-6.36641
32
-0.00000
13
105.86010
23
-8.04131
33
-0.00000
0
3DFACE
8
layer1
62
1
10
99.82442
20
-8.04131
30
25.00000
11
105.86010
21
-8.04131
31
25.00000
12
105.86010
22
-8.04131
32
-0.00000
13
99.82442
23
-8.04131
33
-0.00000
0
3DFACE
8
layer1
62
1
10
133.56320
20
15.40830
30
25.00000
11
133.56320
21
10.43076
31
25.00000
12
133.56320
22
10.43076
32
0.00000
13
133.56320
23
15.40830
33
0.00000
0
3DFACE
8
layer1
62
1
10
105.86010
20
15.40830
30
25.00000
11
133.56320
21
15.40830
31
25.00000
12
133.56320
22
15.40830
32
0.00000
13
105.86010
23
15.40830
33
0.00000
0
3DFACE
8
layer1
62
1
10
105.86010
20
10.43076
30
25.00000
11
105.86010
21
15.40830
31
25.00000
12
105.86010
22
15.40830
32
0.00000
13
105.86010
23
10.43076
33
0.00000
0
3DFACE
8
layer1
62
1
10
133.56320
20
10.43076
30
25.00000
11
105.86010
21
10.43076
31
25.00000
12
105.86010
22
10.43076
32
0.00000
13
133.56320
23
10.43076
33
0.00000
0
3DFACE
8
layer1
62
1
10
133.56320
20
4.64062
30
25.00000
11
133.56320
21
-0.57627
31
25.00000
12
133.56320
22
-0.57627
32
-0.00000
13
133.56320
23
4.64062
33
0.00000
0
3DFACE
8
layer1
62
1
10
105.86010
20
4.64062
30
25.00000
11
133.56320
21
4.64062
31
25.00000
12
133.56320
22
4.64062
32
0.00000
13
105.86010
23
4.64062
33
0.00000
0
3DFACE
8
layer1
62
1
10
105.86010
20
-0.57627
30
25.00000
11
105.86010
21
4.64062
31
25.00000
12
105.86010
22
4.64062
32
0.00000
13
105.86010
23
-0.57627
33
-0.00000
0
3DFACE
8
layer1
62
1
10
133.56320
20
-0.57627
30
25.00000
11
105.86010
21
-0.57627
31
25.00000
12
105.86010
22
-0.57627
32
-0.00000
13
133.56320
23
-0.57627
33
-0.00000
0
3DFACE
8
layer1
62
1
10
73.01479
20
11.19651
30
0.00000
11
73.59362
21
1.30889
31
0.00000
12
77.10693
22
-2.24453
32
-0.00000
13
77.10693
23
-2.24453
33
-0.00000
0
3DFACE
8
layer1
62
1
10
69.65945
20
5.83516
30
0.00000
11
73.59362
21
1.30889
31
0.00000
12
73.01479
22
11.19651
32
0.00000
13
73.01479
23
11.19651
33
0.00000
0
3DFACE
8
layer1
62
1
10
69.17809
20
16.42735
30
0.00000
11
69.65945
21
5.83516
31
0.00000
12
73.01479
22
11.19651
32
0.00000
13
73.01479
23
11.19651
33
0.00000
0
3DFACE
8
layer1
62
1
10
65.30441
20
11.33428
30
0.00000
11
69.65945
21
5.83516
31
0.00000
12
69.17809
22
16.42735
32
0.00000
13
69.17809
23
16.42735
33
0.00000
0
3DFACE
8
layer1
62
1
10
65.63467
20
21.92256
30
0.00000
11
65.30441
21
11.33428
31
0.00000
12
69.17809
22
16.42735
32
0.00000
13
69.17809
23
16.42735
33
0.00000
0
3DFACE
8
layer1
62
1
10
60.52851
20
17.80625
30
0.00000
11
65.30441
21
11.33428
31
0.00000
12
65.63467
22
21.92256
32
0.00000
13
65.63467
23
21.92256
33
0.00000
0
3DFACE
8
layer1
62
1
10
80.59229
20
-13.06631
30
-0.00000
11
81.56807
21
1.52793
31
0.00000
12
77.14479
22
6.23004
32
0.00000
13
77.14479
23
6.23004
33
0.00000
0
3DFACE
8
layer1
62
1
10
79.19248
20
-5.26279
30
-0.00000
11
80.59229
21
-13.06631
31
-0.00000
12
77.14479
22
6.23004
32
0.00000
13
77.14479
23
6.23004
33
0.00000
0
3DFACE
8
layer1
62
1
10
79.06213
20
-4.72438
30
-0.00000
11
79.19248
21
-5.26279
31
-0.00000
12
77.14479
22
6.23004
32
0.00000
13
77.14479
23
6.23004
33
0.00000
0
3DFACE
8
layer1
62
1
10
78.67110
20
-4.04187
30
-0.00000
11
79.06213
21
-4.72438
31
-0.00000
12
77.14479
22
6.23004
32
0.00000
13
77.14479
23
6.23004
33
0.00000
0
3DFACE
8
layer1
62
1
10
78.01936
20
-3.21525
30
-0.00000
11
78.67110
21
-4.04187
31
-0.00000
12
77.14479
22
6.23004
32
0.00000
13
77.14479
23
6.23004
33
0.00000
0
3DFACE
8
layer1
62
1
10
77.10693
20
-2.24453
30
-0.00000
11
78.01936
21
-3.21525
31
-0.00000
12
77.14479
22
6.23004
32
0.00000
13
77.14479
23
6.23004
33
0.00000
0
3DFACE
8
layer1
62
1
10
73.01479
20
11.19651
30
0.00000
11
77.10693
21
-2.24453
31
-0.00000
12
77.14479
22
6.23004
32
0.00000
13
77.14479
23
6.23004
33
0.00000
0
3DFACE
8
layer1
62
1
10
82.72518
20
-10.81663
30
-0.00000
11
81.56807
21
1.52793
31
0.00000
12
80.59229
22
-13.06631
32
-0.00000
13
80.59229
23
-13.06631
33
-0.00000
0
3DFACE
8
layer1
62
1
10
83.27406
20
-0.44127
30
-0.00000
11
81.56807
21
1.52793
31
0.00000
12
82.72518
22
-10.81663
32
-0.00000
13
82.72518
23
-10.81663
33
-0.00000
0
3DFACE
8
layer1
62
1
10
84.24868
20
-8.72627
30
-0.00000
11
83.27406
21
-0.44127
31
-0.00000
12
82.72518
22
-10.81663
32
-0.00000
13
82.72518
23
-10.81663
33
-0.00000
0
3DFACE
8
layer1
62
1
10
84.49263
20
-2.18957
30
-0.00000
11
83.27406
21
-0.44127
31
-0.00000
12
84.24868
22
-8.72627
32
-0.00000
13
84.24868
23
-8.72627
33
-0.00000
0
3DFACE
8
layer1
62
1
10
85.16278
20
-6.79524
30
-0.00000
11
84.49263
21
-2.18957
31
-0.00000
12
84.24868
22
-8.72627
32
-0.00000
13
84.24868
23
-8.72627
33
-0.00000
0
3DFACE
8
layer1
62
1
10
85.22377
20
-3.71700
30
-0.00000
11
84.49263
21
-2.18957
31
-0.00000
12
85.16278
22
-6.79524
32
-0.00000
13
85.16278
23
-6.79524
33
-0.00000
0
3DFACE
8
layer1
62
1
10
85.46748
20
-5.02353
30
-0.00000
11
85.22377
21
-3.71700
31
-0.00000
12
85.16278
22
-6.79524
32
-0.00000
13
85.16278
23
-6.79524
33
-0.00000
0
3DFACE
8
layer1
62
1
10
64.84727
20
-31.98037
30
-0.00000
11
65.50261
21
-19.71163
31
-0.00000
12
63.21484
22
-22.38967
32
-0.00000
13
63.21484
23
-22.38967
33
-0.00000
0
3DFACE
8
layer1
62
1
10
59.57139
20
-27.11533
30
-0.00000
11
64.84727
21
-31.98037
31
-0.00000
12
63.21484
22
-22.38967
32
-0.00000
13
63.21484
23
-22.38967
33
-0.00000
0
3DFACE
8
layer1
62
1
10
61.23777
20
-24.85757
30
-0.00000
11
59.57139
21
-27.11533
31
-0.00000
12
63.21484
22
-22.38967
32
-0.00000
13
63.21484
23
-22.38967
33
-0.00000
0
3DFACE
8
layer1
62
1
10
70.85084
20
-13.98559
30
-0.00000
11
72.09153
21
-22.58169
31
-0.00000
12
73.41799
22
-11.39099
32
-0.00000
13
73.41799
23
-11.39099
33
-0.00000
0
3DFACE
8
layer1
62
1
10
68.31233
20
-27.29562
30
-0.00000
11
72.09153
21
-22.58169
31
-0.00000
12
70.85084
22
-13.98559
32
-0.00000
13
70.85084
23
-13.98559
33
-0.00000
0
3DFACE
8
layer1
62
1
10
68.10107
20
-16.82344
30
-0.00000
11
68.31233
21
-27.29562
31
-0.00000
12
70.85084
22
-13.98559
32
-0.00000
13
70.85084
23
-13.98559
33
-0.00000
0
3DFACE
8
layer1
62
1
10
64.84727
20
-31.98037
30
-0.00000
11
68.31233
21
-27.29562
31
-0.00000
12
68.10107
22
-16.82344
32
-0.00000
13
68.10107
23
-16.82344
33
-0.00000
0
3DFACE
8
layer1
62
1
10
65.50261
20
-19.71163
30
-0.00000
11
64.84727
21
-31.98037
31
-0.00000
12
68.10107
22
-16.82344
32
-0.00000
13
68.10107
23
-16.82344
33
-0.00000
0
3DFACE
8
layer1
62
1
10
76.18484
20
-17.83859
30
-0.00000
11
78.00449
21
-6.93154
31
-0.00000
12
75.80254
22
-9.03964
32
-0.00000
13
75.80254
23
-9.03964
33
-0.00000
0
3DFACE
8
layer1
62
1
10
72.09153
20
-22.58169
30
-0.00000
11
76.18484
21
-17.83859
31
-0.00000
12
75.80254
22
-9.03964
32
-0.00000
13
75.80254
23
-9.03964
33
-0.00000
0
3DFACE
8
layer1
62
1
10
73.41799
20
-11.39099
30
-0.00000
11
72.09153
21
-22.58169
31
-0.00000
12
75.80254
22
-9.03964
32
-0.00000
13
75.80254
23
-9.03964
33
-0.00000
0
3DFACE
8
layer1
62
1
10
78.52424
20
-6.45598
30
-0.00000
11
78.00449
21
-6.93154
31
-0.00000
12
76.18484
22
-17.83859
32
-0.00000
13
76.18484
23
-17.83859
33
-0.00000
0
3DFACE
8
layer1
62
1
10
78.89548
20
-6.01934
30
-0.00000
11
78.52424
21
-6.45598
31
-0.00000
12
76.18484
22
-17.83859
32
-0.00000
13
76.18484
23
-17.83859
33
-0.00000
0
3DFACE
8
layer1
62
1
10
79.11823
20
-5.62161
30
-0.00000
11
78.89548
21
-6.01934
31
-0.00000
12
76.18484
22
-17.83859
32
-0.00000
13
76.18484
23
-17.83859
33
-0.00000
0
3DFACE
8
layer1
62
1
10
80.59229
20
-13.06631
30
-0.00000
11
79.11823
21
-5.62161
31
-0.00000
12
76.18484
22
-17.83859
32
-0.00000
13
76.18484
23
-17.83859
33
-0.00000
0
3DFACE
8
layer1
62
1
10
79.19248
20
-5.26279
30
-0.00000
11
79.11823
21
-5.62161
31
-0.00000
12
80.59229
22
-13.06631
32
-0.00000
13
80.59229
23
-13.06631
33
-0.00000
0
3DFACE
8
layer1
62
1
10
77.10693
20
-2.24453
30
25.00000
11
73.59362
21
1.30889
31
25.00000
12
73.01479
22
11.19651
32
25.00000
13
73.01479
23
11.19651
33
25.00000
0
3DFACE
8
layer1
62
1
10
73.01479
20
11.19651
30
25.00000
11
73.59362
21
1.30889
31
25.00000
12
69.65945
22
5.83516
32
25.00000
13
69.65945
23
5.83516
33
25.00000
0
3DFACE
8
layer1
62
1
10
73.01479
20
11.19651
30
25.00000
11
69.65945
21
5.83516
31
25.00000
12
69.17809
22
16.42735
32
25.00000
13
69.17809
23
16.42735
33
25.00000
0
3DFACE
8
layer1
62
1
10
69.17809
20
16.42735
30
25.00000
11
69.65945
21
5.83516
31
25.00000
12
65.30441
22
11.33428
32
25.00000
13
65.30441
23
11.33428
33
25.00000
0
3DFACE
8
layer1
62
1
10
69.17809
20
16.42735
30
25.00000
11
65.30441
21
11.33428
31
25.00000
12
65.63467
22
21.92256
32
25.00000
13
65.63467
23
21.92256
33
25.00000
0
3DFACE
8
layer1
62
1
10
65.63467
20
21.92256
30
25.00000
11
65.30441
21
11.33428
31
25.00000
12
60.52851
22
17.80625
32
25.00000
13
60.52851
23
17.80625
33
25.00000
0
3DFACE
8
layer1
62
1
10
77.14479
20
6.23004
30
25.00000
11
81.56807
21
1.52793
31
25.00000
12
80.59229
22
-13.06631
32
25.00000
13
80.59229
23
-13.06631
33
25.00000
0
3DFACE
8
layer1
62
1
10
77.14479
20
6.23004
30
25.00000
11
80.59229
21
-13.06631
31
25.00000
12
79.19248
22
-5.26279
32
25.00000
13
79.19248
23
-5.26279
33
25.00000
0
3DFACE
8
layer1
62
1
10
77.14479
20
6.23004
30
25.00000
11
79.19248
21
-5.26279
31
25.00000
12
79.06213
22
-4.72438
32
25.00000
13
79.06213
23
-4.72438
33
25.00000
0
3DFACE
8
layer1
62
1
10
77.14479
20
6.23004
30
25.00000
11
79.06213
21
-4.72438
31
25.00000
12
78.67110
22
-4.04187
32
25.00000
13
78.67110
23
-4.04187
33
25.00000
0
3DFACE
8
layer1
62
1
10
77.14479
20
6.23004
30
25.00000
11
78.67110
21
-4.04187
31
25.00000
12
78.01936
22
-3.21525
32
25.00000
13
78.01936
23
-3.21525
33
25.00000
0
3DFACE
8
layer1
62
1
10
77.14479
20
6.23004
30
25.00000
11
78.01936
21
-3.21525
31
25.00000
12
77.10693
22
-2.24453
32
25.00000
13
77.10693
23
-2.24453
33
25.00000
0
3DFACE
8
layer1
62
1
10
77.14479
20
6.23004
30
25.00000
11
77.10693
21
-2.24453
31
25.00000
12
73.01479
22
11.19651
32
25.00000
13
73.01479
23
11.19651
33
25.00000
0
3DFACE
8
layer1
62
1
10
80.59229
20
-13.06631
30
25.00000
11
81.56807
21
1.52793
31
25.00000
12
82.72518
22
-10.81663
32
25.00000
13
82.72518
23
-10.81663
33
25.00000
0
3DFACE
8
layer1
62
1
10
82.72518
20
-10.81663
30
25.00000
11
81.56807
21
1.52793
31
25.00000
12
83.27406
22
-0.44127
32
25.00000
13
83.27406
23
-0.44127
33
25.00000
0
3DFACE
8
layer1
62
1
10
82.72518
20
-10.81663
30
25.00000
11
83.27406
21
-0.44127
31
25.00000
12
84.24868
22
-8.72627
32
25.00000
13
84.24868
23
-8.72627
33
25.00000
0
3DFACE
8
layer1
62
1
10
84.24868
20
-8.72627
30
25.00000
11
83.27406
21
-0.44127
31
25.00000
12
84.49263
22
-2.18957
32
25.00000
13
84.49263
23
-2.18957
33
25.00000
0
3DFACE
8
layer1
62
1
10
84.24868
20
-8.72627
30
25.00000
11
84.49263
21
-2.18957
31
25.00000
12
85.16278
22
-6.79524
32
25.00000
13
85.16278
23
-6.79524
33
25.00000
0
3DFACE
8
layer1
62
1
10
85.16278
20
-6.79524
30
25.00000
11
84.49263
21
-2.18957
31
25.00000
12
85.22377
22
-3.71700
32
25.00000
13
85.22377
23
-3.71700
33
25.00000
0
3DFACE
8
layer1
62
1
10
85.16278
20
-6.79524
30
25.00000
11
85.22377
21
-3.71700
31
25.00000
12
85.46748
22
-5.02353
32
25.00000
13
85.46748
23
-5.02353
33
25.00000
0
3DFACE
8
layer1
62
1
10
63.21484
20
-22.38967
30
25.00000
11
65.50261
21
-19.71163
31
25.00000
12
64.84727
22
-31.98037
32
25.00000
13
64.84727
23
-31.98037
33
25.00000
0
3DFACE
8
layer1
62
1
10
63.21484
20
-22.38967
30
25.00000
11
64.84727
21
-31.98037
31
25.00000
12
59.57139
22
-27.11533
32
25.00000
13
59.57139
23
-27.11533
33
25.00000
0
3DFACE
8
layer1
62
1
10
63.21484
20
-22.38967
30
25.00000
11
59.57139
21
-27.11533
31
25.00000
12
61.23777
22
-24.85757
32
25.00000
13
61.23777
23
-24.85757
33
25.00000
0
3DFACE
8
layer1
62
1
10
73.41799
20
-11.39099
30
25.00000
11
72.09153
21
-22.58169
31
25.00000
12
70.85084
22
-13.98559
32
25.00000
13
70.85084
23
-13.98559
33
25.00000
0
3DFACE
8
layer1
62
1
10
70.85084
20
-13.98559
30
25.00000
11
72.09153
21
-22.58169
31
25.00000
12
68.31233
22
-27.29562
32
25.00000
13
68.31233
23
-27.29562
33
25.00000
0
3DFACE
8
layer1
62
1
10
70.85084
20
-13.98559
30
25.00000
11
68.31233
21
-27.29562
31
25.00000
12
68.10107
22
-16.82344
32
25.00000
13
68.10107
23
-16.82344
33
25.00000
0
3DFACE
8
layer1
62
1
10
68.10107
20
-16.82344
30
25.00000
11
68.31233
21
-27.29562
31
25.00000
12
64.84727
22
-31.98037
32
25.00000
13
64.84727
23
-31.98037
33
25.00000
0
3DFACE
8
layer1
62
1
10
68.10107
20
-16.82344
30
25.00000
11
64.84727
21
-31.98037
31
25.00000
12
65.50261
22
-19.71163
32
25.00000
13
65.50261
23
-19.71163
33
25.00000
0
3DFACE
8
layer1
62
1
10
75.80254
20
-9.03964
30
25.00000
11
78.00449
21
-6.93154
31
25.00000
12
76.18484
22
-17.83859
32
25.00000
13
76.18484
23
-17.83859
33
25.00000
0
3DFACE
8
layer1
62
1
10
75.80254
20
-9.03964
30
25.00000
11
76.18484
21
-17.83859
31
25.00000
12
72.09153
22
-22.58169
32
25.00000
13
72.09153
23
-22.58169
33
25.00000
0
3DFACE
8
layer1
62
1
10
75.80254
20
-9.03964
30
25.00000
11
72.09153
21
-22.58169
31
25.00000
12
73.41799
22
-11.39099
32
25.00000
13
73.41799
23
-11.39099
33
25.00000
0
3DFACE
8
layer1
62
1
10
76.18484
20
-17.83859
30
25.00000
11
78.00449
21
-6.93154
31
25.00000
12
78.52424
22
-6.45598
32
25.00000
13
78.52424
23
-6.45598
33
25.00000
0
3DFACE
8
layer1
62
1
10
76.18484
20
-17.83859
30
25.00000
11
78.52424
21
-6.45598
31
25.00000
12
78.89548
22
-6.01934
32
25.00000
13
78.89548
23
-6.01934
33
25.00000
0
3DFACE
8
layer1
62
1
10
76.18484
20
-17.83859
30
25.00000
11
78.89548
21
-6.01934
31
25.00000
12
79.11823
22
-5.62161
32
25.00000
13
79.11823
23
-5.62161
33
25.00000
0
3DFACE
8
layer1
62
1
10
76.18484
20
-17.83859
30
25.00000
11
79.11823
21
-5.62161
31
25.00000
12
80.59229
22
-13.06631
32
25.00000
13
80.59229
23
-13.06631
33
25.00000
0
3DFACE
8
layer1
62
1
10
80.59229
20
-13.06631
30
25.00000
11
79.11823
21
-5.62161
31
25.00000
12
79.19248
22
-5.26279
32
25.00000
13
79.19248
23
-5.26279
33
25.00000
0
3DFACE
8
layer1
62
1
10
78.89548
20
-6.01934
30
25.00000
11
78.52424
21
-6.45598
31
25.00000
12
78.52424
22
-6.45598
32
-0.00000
13
78.89548
23
-6.01934
33
-0.00000
0
3DFACE
8
layer1
62
1
10
79.11823
20
-5.62161
30
25.00000
11
78.89548
21
-6.01934
31
25.00000
12
78.89548
22
-6.01934
32
-0.00000
13
79.11823
23
-5.62161
33
-0.00000
0
3DFACE
8
layer1
62
1
10
79.19248
20
-5.26279
30
25.00000
11
79.11823
21
-5.62161
31
25.00000
12
79.11823
22
-5.62161
32
-0.00000
13
79.19248
23
-5.26279
33
-0.00000
0
3DFACE
8
layer1
62
1
10
79.06213
20
-4.72438
30
25.00000
11
79.19248
21
-5.26279
31
25.00000
12
79.19248
22
-5.26279
32
-0.00000
13
79.06213
23
-4.72438
33
-0.00000
0
3DFACE
8
layer1
62
1
10
78.67110
20
-4.04187
30
25.00000
11
79.06213
21
-4.72438
31
25.00000
12
79.06213
22
-4.72438
32
-0.00000
13
78.67110
23
-4.04187
33
-0.00000
0
3DFACE
8
layer1
62
1
10
78.01936
20
-3.21525
30
25.00000
11
78.67110
21
-4.04187
31
25.00000
12
78.67110
22
-4.04187
32
-0.00000
13
78.01936
23
-3.21525
33
-0.00000
0
3DFACE
8
layer1
62
1
10
77.10693
20
-2.24453
30
25.00000
11
78.01936
21
-3.21525
31
25.00000
12
78.01936
22
-3.21525
32
-0.00000
13
77.10693
23
-2.24453
33
-0.00000
0
3DFACE
8
layer1
62
1
10
73.59362
20
1.30889
30
25.00000
11
77.10693
21
-2.24453
31
25.00000
12
77.10693
22
-2.24453
32
-0.00000
13
73.59362
23
1.30889
33
0.00000
0
3DFACE
8
layer1
62
1
10
69.65945
20
5.83516
30
25.00000
11
73.59362
21
1.30889
31
25.00000
12
73.59362
22
1.30889
32
0.00000
13
69.65945
23
5.83516
33
0.00000
0
3DFACE
8
layer1
62
1
10
65.30441
20
11.33428
30
25.00000
11
69.65945
21
5.83516
31
25.00000
12
69.65945
22
5.83516
32
0.00000
13
65.30441
23
11.33428
33
0.00000
0
3DFACE
8
layer1
62
1
10
60.52851
20
17.80625
30
25.00000
11
65.30441
21
11.33428
31
25.00000
12
65.30441
22
11.33428
32
0.00000
13
60.52851
23
17.80625
33
0.00000
0
3DFACE
8
layer1
62
1
10
65.63467
20
21.92256
30
25.00000
11
60.52851
21
17.80625
31
25.00000
12
60.52851
22
17.80625
32
0.00000
13
65.63467
23
21.92256
33
0.00000
0
3DFACE
8
layer1
62
1
10
69.17809
20
16.42735
30
25.00000
11
65.63467
21
21.92256
31
25.00000
12
65.63467
22
21.92256
32
0.00000
13
69.17809
23
16.42735
33
0.00000
0
3DFACE
8
layer1
62
1
10
73.01479
20
11.19651
30
25.00000
11
69.17809
21
16.42735
31
25.00000
12
69.17809
22
16.42735
32
0.00000
13
73.01479
23
11.19651
33
0.00000
0
3DFACE
8
layer1
62
1
10
77.14479
20
6.23004
30
25.00000
11
73.01479
21
11.19651
31
25.00000
12
73.01479
22
11.19651
32
0.00000
13
77.14479
23
6.23004
33
0.00000
0
3DFACE
8
layer1
62
1
10
81.56807
20
1.52793
30
25.00000
11
77.14479
21
6.23004
31
25.00000
12
77.14479
22
6.23004
32
0.00000
13
81.56807
23
1.52793
33
0.00000
0
3DFACE
8
layer1
62
1
10
83.27406
20
-0.44127
30
25.00000
11
81.56807
21
1.52793
31
25.00000
12
81.56807
22
1.52793
32
0.00000
13
83.27406
23
-0.44127
33
-0.00000
0
3DFACE
8
layer1
62
1
10
84.49263
20
-2.18957
30
25.00000
11
83.27406
21
-0.44127
31
25.00000
12
83.27406
22
-0.44127
32
-0.00000
13
84.49263
23
-2.18957
33
-0.00000
0
3DFACE
8
layer1
62
1
10
85.22377
20
-3.71700
30
25.00000
11
84.49263
21
-2.18957
31
25.00000
12
84.49263
22
-2.18957
32
-0.00000
13
85.22377
23
-3.71700
33
-0.00000
0
3DFACE
8
layer1
62
1
10
85.46748
20
-5.02353
30
25.00000
11
85.22377
21
-3.71700
31
25.00000
12
85.22377
22
-3.71700
32
-0.00000
13
85.46748
23
-5.02353
33
-0.00000
0
3DFACE
8
layer1
62
1
10
85.16278
20
-6.79524
30
25.00000
11
85.46748
21
-5.02353
31
25.00000
12
85.46748
22
-5.02353
32
-0.00000
13
85.16278
23
-6.79524
33
-0.00000
0
3DFACE
8
layer1
62
1
10
84.24868
20
-8.72627
30
25.00000
11
85.16278
21
-6.79524
31
25.00000
12
85.16278
22
-6.79524
32
-0.00000
13
84.24868
23
-8.72627
33
-0.00000
0
3DFACE
8
layer1
62
1
10
82.72518
20
-10.81663
30
25.00000
11
84.24868
21
-8.72627
31
25.00000
12
84.24868
22
-8.72627
32
-0.00000
13
82.72518
23
-10.81663
33
-0.00000
0
3DFACE
8
layer1
62
1
10
80.59229
20
-13.06631
30
25.00000
11
82.72518
21
-10.81663
31
25.00000
12
82.72518
22
-10.81663
32
-0.00000
13
80.59229
23
-13.06631
33
-0.00000
0
3DFACE
8
layer1
62
1
10
76.18484
20
-17.83859
30
25.00000
11
80.59229
21
-13.06631
31
25.00000
12
80.59229
22
-13.06631
32
-0.00000
13
76.18484
23
-17.83859
33
-0.00000
0
3DFACE
8
layer1
62
1
10
72.09153
20
-22.58169
30
25.00000
11
76.18484
21
-17.83859
31
25.00000
12
76.18484
22
-17.83859
32
-0.00000
13
72.09153
23
-22.58169
33
-0.00000
0
3DFACE
8
layer1
62
1
10
68.31233
20
-27.29562
30
25.00000
11
72.09153
21
-22.58169
31
25.00000
12
72.09153
22
-22.58169
32
-0.00000
13
68.31233
23
-27.29562
33
-0.00000
0
3DFACE
8
layer1
62
1
10
64.84727
20
-31.98037
30
25.00000
11
68.31233
21
-27.29562
31
25.00000
12
68.31233
22
-27.29562
32
-0.00000
13
64.84727
23
-31.98037
33
-0.00000
0
3DFACE
8
layer1
62
1
10
59.57139
20
-27.11533
30
25.00000
11
64.84727
21
-31.98037
31
25.00000
12
64.84727
22
-31.98037
32
-0.00000
13
59.57139
23
-27.11533
33
-0.00000
0
3DFACE
8
layer1
62
1
10
61.23777
20
-24.85757
30
25.00000
11
59.57139
21
-27.11533
31
25.00000
12
59.57139
22
-27.11533
32
-0.00000
13
61.23777
23
-24.85757
33
-0.00000
0
3DFACE
8
layer1
62
1
10
63.21484
20
-22.38967
30
25.00000
11
61.23777
21
-24.85757
31
25.00000
12
61.23777
22
-24.85757
32
-0.00000
13
63.21484
23
-22.38967
33
-0.00000
0
3DFACE
8
layer1
62
1
10
65.50261
20
-19.71163
30
25.00000
11
63.21484
21
-22.38967
31
25.00000
12
63.21484
22
-22.38967
32
-0.00000
13
65.50261
23
-19.71163
33
-0.00000
0
3DFACE
8
layer1
62
1
10
68.10107
20
-16.82344
30
25.00000
11
65.50261
21
-19.71163
31
25.00000
12
65.50261
22
-19.71163
32
-0.00000
13
68.10107
23
-16.82344
33
-0.00000
0
3DFACE
8
layer1
62
1
10
70.85084
20
-13.98559
30
25.00000
11
68.10107
21
-16.82344
31
25.00000
12
68.10107
22
-16.82344
32
-0.00000
13
70.85084
23
-13.98559
33
-0.00000
0
3DFACE
8
layer1
62
1
10
73.41799
20
-11.39099
30
25.00000
11
70.85084
21
-13.98559
31
25.00000
12
70.85084
22
-13.98559
32
-0.00000
13
73.41799
23
-11.39099
33
-0.00000
0
3DFACE
8
layer1
62
1
10
75.80254
20
-9.03964
30
25.00000
11
73.41799
21
-11.39099
31
25.00000
12
73.41799
22
-11.39099
32
-0.00000
13
75.80254
23
-9.03964
33
-0.00000
0
3DFACE
8
layer1
62
1
10
78.00449
20
-6.93154
30
25.00000
11
75.80254
21
-9.03964
31
25.00000
12
75.80254
22
-9.03964
32
-0.00000
13
78.00449
23
-6.93154
33
-0.00000
0
3DFACE
8
layer1
62
1
10
78.52424
20
-6.45598
30
25.00000
11
78.00449
21
-6.93154
31
25.00000
12
78.00449
22
-6.93154
32
-0.00000
13
78.52424
23
-6.45598
33
-0.00000
0
3DFACE
8
layer1
62
1
10
14.24529
20
-26.73469
30
-0.00000
11
15.92131
21
-19.88308
31
-0.00000
12
14.59209
22
-15.41797
32
-0.00000
13
14.59209
23
-15.41797
33
-0.00000
0
3DFACE
8
layer1
62
1
10
17.78223
20
-23.78037
30
-0.00000
11
15.92131
21
-19.88308
31
-0.00000
12
14.24529
22
-26.73469
32
-0.00000
13
14.24529
23
-26.73469
33
-0.00000
0
3DFACE
8
layer1
62
1
10
18.93867
20
-31.73223
30
-0.00000
11
17.78223
21
-23.78037
31
-0.00000
12
14.24529
22
-26.73469
32
-0.00000
13
14.24529
23
-26.73469
33
-0.00000
0
3DFACE
8
layer1
62
1
10
17.78223
20
-21.14824
30
-0.00000
11
17.78223
21
-23.78037
31
-0.00000
12
18.93867
22
-31.73223
32
-0.00000
13
18.93867
23
-31.73223
33
-0.00000
0
3DFACE
8
layer1
62
1
10
19.75010
20
-25.74824
30
-0.00000
11
17.78223
21
-21.14824
31
-0.00000
12
18.93867
22
-31.73223
32
-0.00000
13
18.93867
23
-31.73223
33
-0.00000
0
3DFACE
8
layer1
62
1
10
26.39639
20
-22.34473
30
-0.00000
11
17.78223
21
-21.14824
31
-0.00000
12
19.75010
22
-25.74824
32
-0.00000
13
19.75010
23
-25.74824
33
-0.00000
0
3DFACE
8
layer1
62
1
10
31.71416
20
-20.48399
30
-0.00000
11
26.39639
21
-22.34473
31
-0.00000
12
19.75010
22
-25.74824
32
-0.00000
13
19.75010
23
-25.74824
33
-0.00000
0
3DFACE
8
layer1
62
1
10
31.71416
20
-15.41172
30
-0.00000
11
26.39639
21
-22.34473
31
-0.00000
12
31.71416
22
-20.48399
32
-0.00000
13
31.71416
23
-20.48399
33
-0.00000
0
3DFACE
8
layer1
62
1
10
39.61055
20
-15.41172
30
-0.00000
11
31.71416
21
-15.41172
31
-0.00000
12
31.71416
22
-20.48399
32
-0.00000
13
31.71416
23
-20.48399
33
-0.00000
0
3DFACE
8
layer1
62
1
10
34.53203
20
0.33350
30
0.00000
11
39.84980
21
4.44863
31
0.00000
12
31.71416
22
4.44863
32
0.00000
13
31.71416
23
4.44863
33
0.00000
0
3DFACE
8
layer1
62
1
10
35.15703
20
-13.54482
30
-0.00000
11
39.84980
21
4.44863
31
0.00000
12
34.53203
22
0.33350
32
0.00000
13
34.53203
23
0.33350
33
0.00000
0
3DFACE
8
layer1
62
1
10
34.53203
20
-9.42969
30
-0.00000
11
35.15703
21
-13.54482
31
-0.00000
12
34.53203
22
0.33350
32
0.00000
13
34.53203
23
0.33350
33
0.00000
0
3DFACE
8
layer1
62
1
10
31.71416
20
-13.54482
30
-0.00000
11
35.15703
21
-13.54482
31
-0.00000
12
34.53203
22
-9.42969
32
-0.00000
13
34.53203
23
-9.42969
33
-0.00000
0
3DFACE
8
layer1
62
1
10
31.71416
20
-9.42969
30
-0.00000
11
31.71416
21
-13.54482
31
-0.00000
12
34.53203
22
-9.42969
32
-0.00000
13
34.53203
23
-9.42969
33
-0.00000
0
3DFACE
8
layer1
62
1
10
26.39639
20
-22.34473
30
-0.00000
11
31.71416
21
-13.54482
31
-0.00000
12
31.71416
22
-9.42969
32
-0.00000
13
31.71416
23
-9.42969
33
-0.00000
0
3DFACE
8
layer1
62
1
10
31.71416
20
-6.60567
30
-0.00000
11
26.39639
21
-22.34473
31
-0.00000
12
31.71416
22
-9.42969
32
-0.00000
13
31.71416
23
-9.42969
33
-0.00000
0
3DFACE
8
layer1
62
1
10
31.71416
20
-2.49053
30
-0.00000
11
26.39639
21
-22.34473
31
-0.00000
12
31.71416
22
-6.60567
32
-0.00000
13
31.71416
23
-6.60567
33
-0.00000
0
3DFACE
8
layer1
62
1
10
34.53203
20
-2.49053
30
-0.00000
11
31.71416
21
-2.49053
31
-0.00000
12
31.71416
22
-6.60567
32
-0.00000
13
31.71416
23
-6.60567
33
-0.00000
0
3DFACE
8
layer1
62
1
10
34.53203
20
-2.49053
30
-0.00000
11
31.71416
21
-6.60567
31
-0.00000
12
34.53203
22
-6.60567
32
-0.00000
13
34.53203
23
-6.60567
33
-0.00000
0
3DFACE
8
layer1
62
1
10
34.53203
20
0.33350
30
0.00000
11
34.53203
21
-2.49053
31
-0.00000
12
34.53203
22
-6.60567
32
-0.00000
13
34.53203
23
-6.60567
33
-0.00000
0
3DFACE
8
layer1
62
1
10
34.53203
20
-9.42969
30
-0.00000
11
34.53203
21
0.33350
31
0.00000
12
34.53203
22
-6.60567
32
-0.00000
13
34.53203
23
-6.60567
33
-0.00000
0
3DFACE
8
layer1
62
1
10
31.71416
20
4.44863
30
0.00000
11
31.71416
21
0.33350
31
0.00000
12
34.53203
22
0.33350
32
0.00000
13
34.53203
23
0.33350
33
0.00000
0
3DFACE
8
layer1
62
1
10
26.39639
20
-22.34473
30
-0.00000
11
31.71416
21
0.33350
31
0.00000
12
31.71416
22
4.44863
32
0.00000
13
31.71416
23
4.44863
33
0.00000
0
3DFACE
8
layer1
62
1
10
31.71416
20
6.07627
30
0.00000
11
26.39639
21
-22.34473
31
-0.00000
12
31.71416
22
4.44863
32
0.00000
13
31.71416
23
4.44863
33
0.00000
0
3DFACE
8
layer1
62
1
10
31.71416
20
11.14853
30
0.00000
11
26.39639
21
-22.34473
31
-0.00000
12
31.71416
22
6.07627
32
0.00000
13
31.71416
23
6.07627
33
0.00000
0
3DFACE
8
layer1
62
1
10
41.04619
20
11.14853
30
0.00000
11
31.71416
21
11.14853
31
0.00000
12
31.71416
22
6.07627
32
0.00000
13
31.71416
23
6.07627
33
0.00000
0
3DFACE
8
layer1
62
1
10
31.07549
20
18.55391
30
0.00000
11
31.71416
21
13.25479
31
0.00000
12
33.34777
22
13.03227
32
0.00000
13
33.34777
23
13.03227
33
0.00000
0
3DFACE
8
layer1
62
1
10
26.39639
20
-22.34473
30
-0.00000
11
31.71416
21
13.25479
31
0.00000
12
31.07549
22
18.55391
32
0.00000
13
31.07549
23
18.55391
33
0.00000
0
3DFACE
8
layer1
62
1
10
26.39639
20
13.77842
30
0.00000
11
26.39639
21
-22.34473
31
-0.00000
12
31.07549
22
18.55391
32
0.00000
13
31.07549
23
18.55391
33
0.00000
0
3DFACE
8
layer1
62
1
10
26.39639
20
-20.48399
30
-0.00000
11
26.39639
21
-22.34473
31
-0.00000
12
26.39639
22
13.77842
32
0.00000
13
26.39639
23
13.77842
33
0.00000
0
3DFACE
8
layer1
62
1
10
26.39639
20
-15.41172
30
-0.00000
11
26.39639
21
-20.48399
31
-0.00000
12
26.39639
22
13.77842
32
0.00000
13
26.39639
23
13.77842
33
0.00000
0
3DFACE
8
layer1
62
1
10
18.02148
20
-20.48399
30
-0.00000
11
26.39639
21
-20.48399
31
-0.00000
12
26.39639
22
-15.41172
32
-0.00000
13
26.39639
23
-15.41172
33
-0.00000
0
3DFACE
8
layer1
62
1
10
18.02148
20
-15.41172
30
-0.00000
11
18.02148
21
-20.48399
31
-0.00000
12
26.39639
22
-15.41172
32
-0.00000
13
26.39639
23
-15.41172
33
-0.00000
0
3DFACE
8
layer1
62
1
10
35.73093
20
18.06575
30
0.00000
11
37.12839
21
12.67333
31
0.00000
12
39.27539
22
12.53691
32
0.00000
13
39.27539
23
12.53691
33
0.00000
0
3DFACE
8
layer1
62
1
10
35.15252
20
12.83845
30
0.00000
11
37.12839
21
12.67333
31
0.00000
12
35.73093
22
18.06575
32
0.00000
13
35.73093
23
18.06575
33
0.00000
0
3DFACE
8
layer1
62
1
10
31.07549
20
18.55391
30
0.00000
11
35.15252
21
12.83845
31
0.00000
12
35.73093
22
18.06575
32
0.00000
13
35.73093
23
18.06575
33
0.00000
0
3DFACE
8
layer1
62
1
10
33.34777
20
13.03227
30
0.00000
11
35.15252
21
12.83845
31
0.00000
12
31.07549
22
18.55391
32
0.00000
13
31.07549
23
18.55391
33
0.00000
0
3DFACE
8
layer1
62
1
10
39.66816
20
19.33890
30
0.00000
11
39.42397
21
20.49828
31
0.00000
12
39.35681
22
19.81753
32
0.00000
13
39.35681
23
19.81753
33
0.00000
0
3DFACE
8
layer1
62
1
10
39.86963
20
21.38115
30
0.00000
11
39.42397
21
20.49828
31
0.00000
12
39.66816
22
19.33890
32
0.00000
13
39.66816
23
19.33890
33
0.00000
0
3DFACE
8
layer1
62
1
10
40.35801
20
19.06240
30
0.00000
11
39.86963
21
21.38115
31
0.00000
12
39.66816
22
19.33890
32
0.00000
13
39.66816
23
19.33890
33
0.00000
0
3DFACE
8
layer1
62
1
10
42.90684
20
7.00332
30
0.00000
11
39.86963
21
21.38115
31
0.00000
12
40.35801
22
19.06240
32
0.00000
13
40.35801
23
19.06240
33
0.00000
0
3DFACE
8
layer1
62
1
10
42.30230
20
9.13052
30
0.00000
11
42.90684
21
7.00332
31
0.00000
12
40.35801
22
19.06240
32
0.00000
13
40.35801
23
19.06240
33
0.00000
0
3DFACE
8
layer1
62
1
10
41.67598
20
11.84944
30
0.00000
11
42.30230
21
9.13052
31
0.00000
12
40.35801
22
19.06240
32
0.00000
13
40.35801
23
19.06240
33
0.00000
0
3DFACE
8
layer1
62
1
10
41.02788
20
15.16006
30
0.00000
11
41.67598
21
11.84944
31
0.00000
12
40.35801
22
19.06240
32
0.00000
13
40.35801
23
19.06240
33
0.00000
0
3DFACE
8
layer1
62
1
10
47.22538
20
13.97615
30
0.00000
11
48.22471
21
-3.97354
31
-0.00000
12
48.71683
22
-5.78514
32
-0.00000
13
48.71683
23
-5.78514
33
-0.00000
0
3DFACE
8
layer1
62
1
10
42.18906
20
-32.68760
30
-0.00000
11
48.22471
21
-3.97354
31
-0.00000
12
47.22538
22
13.97615
32
0.00000
13
47.22538
23
13.97615
33
0.00000
0
3DFACE
8
layer1
62
1
10
46.00752
20
22.40108
30
0.00000
11
42.18906
21
-32.68760
31
-0.00000
12
47.22538
22
13.97615
32
0.00000
13
47.22538
23
13.97615
33
0.00000
0
3DFACE
8
layer1
62
1
10
42.90684
20
7.00332
30
0.00000
11
42.18906
21
-32.68760
31
-0.00000
12
46.00752
22
22.40108
32
0.00000
13
46.00752
23
22.40108
33
0.00000
0
3DFACE
8
layer1
62
1
10
39.86963
20
21.38115
30
0.00000
11
42.90684
21
7.00332
31
0.00000
12
46.00752
22
22.40108
32
0.00000
13
46.00752
23
22.40108
33
0.00000
0
3DFACE
8
layer1
62
1
10
20.87266
20
20.24756
30
0.00000
11
21.11279
21
14.45117
31
0.00000
12
22.43677
22
14.23283
32
0.00000
13
22.43677
23
14.23283
33
0.00000
0
3DFACE
8
layer1
62
1
10
20.10582
20
14.26095
30
0.00000
11
21.11279
21
14.45117
31
0.00000
12
20.87266
22
20.24756
32
0.00000
13
20.87266
23
20.24756
33
0.00000
0
3DFACE
8
layer1
62
1
10
19.24189
20
15.71494
30
0.00000
11
20.10582
21
14.26095
31
0.00000
12
20.87266
22
20.24756
32
0.00000
13
20.87266
23
20.24756
33
0.00000
0
3DFACE
8
layer1
62
1
10
19.45835
20
14.40818
30
0.00000
11
20.10582
21
14.26095
31
0.00000
12
19.24189
22
15.71494
32
0.00000
13
19.24189
23
15.71494
33
0.00000
0
3DFACE
8
layer1
62
1
10
19.17037
20
14.89284
30
0.00000
11
19.45835
21
14.40818
31
0.00000
12
19.24189
22
15.71494
32
0.00000
13
19.24189
23
15.71494
33
0.00000
0
3DFACE
8
layer1
62
1
10
26.12273
20
19.28118
30
0.00000
11
26.39639
21
13.77842
31
0.00000
12
31.07549
22
18.55391
32
0.00000
13
31.07549
23
18.55391
33
0.00000
0
3DFACE
8
layer1
62
1
10
25.07856
20
13.89645
30
0.00000
11
26.39639
21
13.77842
31
0.00000
12
26.12273
22
19.28118
32
0.00000
13
26.12273
23
19.28118
33
0.00000
0
3DFACE
8
layer1
62
1
10
20.87266
20
20.24756
30
0.00000
11
25.07856
21
13.89645
31
0.00000
12
26.12273
22
19.28118
32
0.00000
13
26.12273
23
19.28118
33
0.00000
0
3DFACE
8
layer1
62
1
10
23.75869
20
14.04793
30
0.00000
11
25.07856
21
13.89645
31
0.00000
12
20.87266
22
20.24756
32
0.00000
13
20.87266
23
20.24756
33
0.00000
0
3DFACE
8
layer1
62
1
10
22.43677
20
14.23283
30
0.00000
11
23.75869
21
14.04793
31
0.00000
12
20.87266
22
20.24756
32
0.00000
13
20.87266
23
20.24756
33
0.00000
0
3DFACE
8
layer1
62
1
10
26.39639
20
-13.54482
30
-0.00000
11
26.39639
21
-15.41172
31
-0.00000
12
26.39639
22
13.77842
32
0.00000
13
26.39639
23
13.77842
33
0.00000
0
3DFACE
8
layer1
62
1
10
26.39639
20
-9.42969
30
-0.00000
11
26.39639
21
-13.54482
31
-0.00000
12
26.39639
22
13.77842
32
0.00000
13
26.39639
23
13.77842
33
0.00000
0
3DFACE
8
layer1
62
1
10
26.39639
20
-6.60567
30
-0.00000
11
26.39639
21
-9.42969
31
-0.00000
12
26.39639
22
13.77842
32
0.00000
13
26.39639
23
13.77842
33
0.00000
0
3DFACE
8
layer1
62
1
10
26.39639
20
-2.49053
30
-0.00000
11
26.39639
21
-6.60567
31
-0.00000
12
26.39639
22
13.77842
32
0.00000
13
26.39639
23
13.77842
33
0.00000
0
3DFACE
8
layer1
62
1
10
26.39639
20
0.33350
30
0.00000
11
26.39639
21
-2.49053
31
-0.00000
12
26.39639
22
13.77842
32
0.00000
13
26.39639
23
13.77842
33
0.00000
0
3DFACE
8
layer1
62
1
10
26.39639
20
4.44863
30
0.00000
11
26.39639
21
0.33350
31
0.00000
12
26.39639
22
13.77842
32
0.00000
13
26.39639
23
13.77842
33
0.00000
0
3DFACE
8
layer1
62
1
10
26.39639
20
6.07627
30
0.00000
11
26.39639
21
4.44863
31
0.00000
12
26.39639
22
13.77842
32
0.00000
13
26.39639
23
13.77842
33
0.00000
0
3DFACE
8
layer1
62
1
10
26.39639
20
11.14853
30
0.00000
11
26.39639
21
6.07627
31
0.00000
12
26.39639
22
13.77842
32
0.00000
13
26.39639
23
13.77842
33
0.00000
0
3DFACE
8
layer1
62
1
10
26.39639
20
11.14853
30
0.00000
11
17.35723
21
6.07627
31
0.00000
12
26.39639
22
6.07627
32
0.00000
13
26.39639
23
6.07627
33
0.00000
0
3DFACE
8
layer1
62
1
10
17.35723
20
7.08076
30
0.00000
11
17.35723
21
6.07627
31
0.00000
12
26.39639
22
11.14853
32
0.00000
13
26.39639
23
11.14853
33
0.00000
0
3DFACE
8
layer1
62
1
10
17.30371
20
11.14853
30
0.00000
11
17.35723
21
7.08076
31
0.00000
12
26.39639
22
11.14853
32
0.00000
13
26.39639
23
11.14853
33
0.00000
0
3DFACE
8
layer1
62
1
10
17.30371
20
7.08076
30
0.00000
11
17.35723
21
7.08076
31
0.00000
12
17.30371
22
11.14853
32
0.00000
13
17.30371
23
11.14853
33
0.00000
0
3DFACE
8
layer1
62
1
10
10.89287
20
-20.69714
30
-0.00000
11
13.52871
21
-4.78428
31
-0.00000
12
13.52871
22
2.00850
32
0.00000
13
13.52871
23
2.00850
33
0.00000
0
3DFACE
8
layer1
62
1
10
13.28945
20
7.08076
30
0.00000
11
10.89287
21
-20.69714
31
-0.00000
12
13.52871
22
2.00850
32
0.00000
13
13.52871
23
2.00850
33
0.00000
0
3DFACE
8
layer1
62
1
10
17.30371
20
7.08076
30
0.00000
11
13.28945
21
7.08076
31
0.00000
12
13.52871
22
2.00850
32
0.00000
13
13.52871
23
2.00850
33
0.00000
0
3DFACE
8
layer1
62
1
10
17.30371
20
6.07627
30
0.00000
11
17.30371
21
7.08076
31
0.00000
12
13.52871
22
2.00850
32
0.00000
13
13.52871
23
2.00850
33
0.00000
0
3DFACE
8
layer1
62
1
10
17.35723
20
6.07627
30
0.00000
11
17.30371
21
6.07627
31
0.00000
12
13.52871
22
2.00850
32
0.00000
13
13.52871
23
2.00850
33
0.00000
0
3DFACE
8
layer1
62
1
10
17.35723
20
2.00850
30
0.00000
11
17.35723
21
6.07627
31
0.00000
12
13.52871
22
2.00850
32
0.00000
13
13.52871
23
2.00850
33
0.00000
0
3DFACE
8
layer1
62
1
10
8.83594
20
21.43770
30
0.00000
11
8.21094
21
2.00850
31
0.00000
12
8.21094
22
-5.50205
32
-0.00000
13
8.21094
23
-5.50205
33
-0.00000
0
3DFACE
8
layer1
62
1
10
7.97168
20
19.00772
30
0.00000
11
8.21094
21
2.00850
31
0.00000
12
8.83594
22
21.43770
32
0.00000
13
8.83594
23
21.43770
33
0.00000
0
3DFACE
8
layer1
62
1
10
7.47078
20
21.28582
30
0.00000
11
7.97168
21
19.00772
31
0.00000
12
8.83594
22
21.43770
32
0.00000
13
8.83594
23
21.43770
33
0.00000
0
3DFACE
8
layer1
62
1
10
7.03865
20
20.07083
30
0.00000
11
7.97168
21
19.00772
31
0.00000
12
7.47078
22
21.28582
32
0.00000
13
7.47078
23
21.28582
33
0.00000
0
3DFACE
8
layer1
62
1
10
6.87168
20
20.83020
30
0.00000
11
7.03865
21
20.07083
31
0.00000
12
7.47078
22
21.28582
32
0.00000
13
7.47078
23
21.28582
33
0.00000
0
3DFACE
8
layer1
62
1
10
7.97168
20
7.08076
30
0.00000
11
8.21094
21
2.00850
31
0.00000
12
7.97168
22
19.00772
32
0.00000
13
7.97168
23
19.00772
33
0.00000
0
3DFACE
8
layer1
62
1
10
4.67529
20
2.00850
30
0.00000
11
8.21094
21
2.00850
31
0.00000
12
7.97168
22
7.08076
32
0.00000
13
7.97168
23
7.08076
33
0.00000
0
3DFACE
8
layer1
62
1
10
-0.64248
20
7.08076
30
0.00000
11
4.67529
21
2.00850
31
0.00000
12
7.97168
22
7.08076
32
0.00000
13
7.97168
23
7.08076
33
0.00000
0
3DFACE
8
layer1
62
1
10
3.38507
20
-30.78990
30
-0.00000
11
4.67529
21
2.00850
31
0.00000
12
-0.64248
22
7.08076
32
0.00000
13
-0.64248
23
7.08076
33
0.00000
0
3DFACE
8
layer1
62
1
10
1.50552
20
-29.37737
30
-0.00000
11
3.38507
21
-30.78990
31
-0.00000
12
-0.64248
22
7.08076
32
0.00000
13
-0.64248
23
7.08076
33
0.00000
0
3DFACE
8
layer1
62
1
10
10.89287
20
-20.69714
30
-0.00000
11
13.28945
21
21.43770
31
0.00000
12
8.83594
22
21.43770
32
0.00000
13
8.83594
23
21.43770
33
0.00000
0
3DFACE
8
layer1
62
1
10
8.88142
20
-13.61960
30
-0.00000
11
10.89287
21
-20.69714
31
-0.00000
12
8.83594
22
21.43770
32
0.00000
13
8.83594
23
21.43770
33
0.00000
0
3DFACE
8
layer1
62
1
10
8.21094
20
-5.50205
30
-0.00000
11
8.88142
21
-13.61960
31
-0.00000
12
8.83594
22
21.43770
32
0.00000
13
8.83594
23
21.43770
33
0.00000
0
3DFACE
8
layer1
62
1
10
14.24529
20
-26.73469
30
-0.00000
11
14.59209
21
-15.41797
31
-0.00000
12
13.79456
22
-10.38503
32
-0.00000
13
13.79456
23
-10.38503
33
-0.00000
0
3DFACE
8
layer1
62
1
10
10.89287
20
-20.69714
30
-0.00000
11
14.24529
21
-26.73469
31
-0.00000
12
13.79456
22
-10.38503
32
-0.00000
13
13.79456
23
-10.38503
33
-0.00000
0
3DFACE
8
layer1
62
1
10
13.52871
20
-4.78428
30
-0.00000
11
10.89287
21
-20.69714
31
-0.00000
12
13.79456
22
-10.38503
32
-0.00000
13
13.79456
23
-10.38503
33
-0.00000
0
3DFACE
8
layer1
62
1
10
0.32589
20
-27.02315
30
-0.00000
11
1.50552
21
-29.37737
31
-0.00000
12
-0.64248
22
7.08076
32
0.00000
13
-0.64248
23
7.08076
33
0.00000
0
3DFACE
8
layer1
62
1
10
-0.15381
20
-23.72725
30
0.00000
11
0.32589
21
-27.02315
31
-0.00000
12
-0.64248
22
7.08076
32
0.00000
13
-0.64248
23
7.08076
33
0.00000
0
3DFACE
8
layer1
62
1
10
5.39189
20
-23.39190
30
-0.00000
11
4.67529
21
2.00850
31
0.00000
12
3.38507
22
-30.78990
32
-0.00000
13
3.38507
23
-30.78990
33
-0.00000
0
3DFACE
8
layer1
62
1
10
5.56218
20
-24.61147
30
-0.00000
11
5.39189
21
-23.39190
31
-0.00000
12
3.38507
22
-30.78990
32
-0.00000
13
3.38507
23
-30.78990
33
-0.00000
0
3DFACE
8
layer1
62
1
10
5.87390
20
-25.48259
30
-0.00000
11
5.56218
21
-24.61147
31
-0.00000
12
3.38507
22
-30.78990
32
-0.00000
13
3.38507
23
-30.78990
33
-0.00000
0
3DFACE
8
layer1
62
1
10
5.96455
20
-31.26074
30
-0.00000
11
5.87390
21
-25.48259
31
-0.00000
12
3.38507
22
-30.78990
32
-0.00000
13
3.38507
23
-30.78990
33
-0.00000
0
3DFACE
8
layer1
62
1
10
6.92168
20
-26.17949
30
-0.00000
11
11.57783
21
-31.26074
31
-0.00000
12
11.85381
22
-26.17949
32
-0.00000
13
11.85381
23
-26.17949
33
-0.00000
0
3DFACE
8
layer1
62
1
10
5.96455
20
-31.26074
30
-0.00000
11
11.57783
21
-31.26074
31
-0.00000
12
6.92168
22
-26.17949
32
-0.00000
13
6.92168
23
-26.17949
33
-0.00000
0
3DFACE
8
layer1
62
1
10
6.32707
20
-26.00527
30
-0.00000
11
5.96455
21
-31.26074
31
-0.00000
12
6.92168
22
-26.17949
32
-0.00000
13
6.92168
23
-26.17949
33
-0.00000
0
3DFACE
8
layer1
62
1
10
5.87390
20
-25.48259
30
-0.00000
11
5.96455
21
-31.26074
31
-0.00000
12
6.32707
22
-26.00527
32
-0.00000
13
6.32707
23
-26.00527
33
-0.00000
0
3DFACE
8
layer1
62
1
10
23.10000
20
-2.49053
30
-0.00000
11
23.10000
21
-6.60567
31
-0.00000
12
26.39639
22
-2.49053
32
-0.00000
13
26.39639
23
-2.49053
33
-0.00000
0
3DFACE
8
layer1
62
1
10
17.78223
20
-13.54482
30
-0.00000
11
23.10000
21
-6.60567
31
-0.00000
12
23.10000
22
-2.49053
32
-0.00000
13
23.10000
23
-2.49053
33
-0.00000
0
3DFACE
8
layer1
62
1
10
23.10000
20
0.33350
30
0.00000
11
17.78223
21
-13.54482
31
-0.00000
12
23.10000
22
-2.49053
32
-0.00000
13
23.10000
23
-2.49053
33
-0.00000
0
3DFACE
8
layer1
62
1
10
17.78223
20
4.44863
30
0.00000
11
17.78223
21
-13.54482
31
-0.00000
12
23.10000
22
0.33350
32
0.00000
13
23.10000
23
0.33350
33
0.00000
0
3DFACE
8
layer1
62
1
10
26.39639
20
4.44863
30
0.00000
11
17.78223
21
4.44863
31
0.00000
12
23.10000
22
0.33350
32
0.00000
13
23.10000
23
0.33350
33
0.00000
0
3DFACE
8
layer1
62
1
10
23.10000
20
-9.42969
30
-0.00000
11
23.10000
21
-6.60567
31
-0.00000
12
17.78223
22
-13.54482
32
-0.00000
13
17.78223
23
-13.54482
33
-0.00000
0
3DFACE
8
layer1
62
1
10
26.39639
20
-9.42969
30
-0.00000
11
23.10000
21
-9.42969
31
-0.00000
12
17.78223
22
-13.54482
32
-0.00000
13
17.78223
23
-13.54482
33
-0.00000
0
3DFACE
8
layer1
62
1
10
26.39639
20
-13.54482
30
-0.00000
11
26.39639
21
-9.42969
31
-0.00000
12
17.78223
22
-13.54482
32
-0.00000
13
17.78223
23
-13.54482
33
-0.00000
0
3DFACE
8
layer1
62
1
10
40.04023
20
-29.75986
30
-0.00000
11
41.04619
21
-23.86523
31
-0.00000
12
31.71416
22
-22.89629
32
-0.00000
13
31.71416
23
-22.89629
33
-0.00000
0
3DFACE
8
layer1
62
1
10
39.15553
20
-30.19810
30
-0.00000
11
40.04023
21
-29.75986
31
-0.00000
12
31.71416
22
-22.89629
32
-0.00000
13
31.71416
23
-22.89629
33
-0.00000
0
3DFACE
8
layer1
62
1
10
37.71445
20
-29.25586
30
-0.00000
11
39.15553
21
-30.19810
31
-0.00000
12
31.71416
22
-22.89629
32
-0.00000
13
31.71416
23
-22.89629
33
-0.00000
0
3DFACE
8
layer1
62
1
10
19.75010
20
-25.74824
30
-0.00000
11
37.71445
21
-29.25586
31
-0.00000
12
31.71416
22
-22.89629
32
-0.00000
13
31.71416
23
-22.89629
33
-0.00000
0
3DFACE
8
layer1
62
1
10
31.71416
20
-20.48399
30
-0.00000
11
19.75010
21
-25.74824
31
-0.00000
12
31.71416
22
-22.89629
32
-0.00000
13
31.71416
23
-22.89629
33
-0.00000
0
3DFACE
8
layer1
62
1
10
38.47300
20
-30.26018
30
-0.00000
11
39.15553
21
-30.19810
31
-0.00000
12
37.71445
22
-29.25586
32
-0.00000
13
37.71445
23
-29.25586
33
-0.00000
0
3DFACE
8
layer1
62
1
10
37.99264
20
-29.94610
30
-0.00000
11
38.47300
21
-30.26018
31
-0.00000
12
37.71445
22
-29.25586
32
-0.00000
13
37.71445
23
-29.25586
33
-0.00000
0
3DFACE
8
layer1
62
1
10
42.18906
20
4.67842
30
0.00000
11
42.90684
21
7.00332
31
0.00000
12
41.87496
22
6.73097
32
0.00000
13
41.87496
23
6.73097
33
0.00000
0
3DFACE
8
layer1
62
1
10
41.51608
20
5.56852
30
0.00000
11
42.18906
21
4.67842
31
0.00000
12
41.87496
22
6.73097
32
0.00000
13
41.87496
23
6.73097
33
0.00000
0
3DFACE
8
layer1
62
1
10
41.41138
20
6.25271
30
0.00000
11
41.51608
21
5.56852
31
0.00000
12
41.87496
22
6.73097
32
0.00000
13
41.87496
23
6.73097
33
0.00000
0
3DFACE
8
layer1
62
1
10
51.48320
20
-10.19492
30
-0.00000
11
51.80356
21
0.14905
31
0.00000
12
49.15740
22
6.55881
32
0.00000
13
49.15740
23
6.55881
33
0.00000
0
3DFACE
8
layer1
62
1
10
50.34608
20
-8.89583
30
-0.00000
11
51.48320
21
-10.19492
31
-0.00000
12
49.15740
22
6.55881
32
0.00000
13
49.15740
23
6.55881
33
0.00000
0
3DFACE
8
layer1
62
1
10
49.42395
20
-7.42590
30
-0.00000
11
50.34608
21
-8.89583
31
-0.00000
12
49.15740
22
6.55881
32
0.00000
13
49.15740
23
6.55881
33
0.00000
0
3DFACE
8
layer1
62
1
10
48.71683
20
-5.78514
30
-0.00000
11
49.42395
21
-7.42590
31
-0.00000
12
49.15740
22
6.55881
32
0.00000
13
49.15740
23
6.55881
33
0.00000
0
3DFACE
8
layer1
62
1
10
47.22538
20
13.97615
30
0.00000
11
48.71683
21
-5.78514
31
-0.00000
12
49.15740
22
6.55881
32
0.00000
13
49.15740
23
6.55881
33
0.00000
0
3DFACE
8
layer1
62
1
10
55.16387
20
-5.25313
30
-0.00000
11
51.80356
21
0.14905
31
0.00000
12
51.48320
22
-10.19492
32
-0.00000
13
51.48320
23
-10.19492
33
-0.00000
0
3DFACE
8
layer1
62
1
10
48.22471
20
-32.68760
30
-0.00000
11
48.22471
21
-3.97354
31
-0.00000
12
42.18906
22
-32.68760
32
-0.00000
13
42.18906
23
-32.68760
33
-0.00000
0
3DFACE
8
layer1
62
1
10
42.18906
20
4.67842
30
0.00000
11
42.18906
21
-32.68760
31
-0.00000
12
42.90684
22
7.00332
32
0.00000
13
42.90684
23
7.00332
33
0.00000
0
3DFACE
8
layer1
62
1
10
22.62148
20
-27.72803
30
-0.00000
11
19.75010
21
-25.74824
31
-0.00000
12
18.93867
22
-31.73223
32
-0.00000
13
18.93867
23
-31.73223
33
-0.00000
0
3DFACE
8
layer1
62
1
10
31.71416
20
-13.54482
30
-0.00000
11
26.39639
21
-22.34473
31
-0.00000
12
31.71416
22
-15.41172
32
-0.00000
13
31.71416
23
-15.41172
33
-0.00000
0
3DFACE
8
layer1
62
1
10
31.71416
20
0.33350
30
0.00000
11
26.39639
21
-22.34473
31
-0.00000
12
31.71416
22
-2.49053
32
-0.00000
13
31.71416
23
-2.49053
33
-0.00000
0
3DFACE
8
layer1
62
1
10
31.71416
20
13.25479
30
0.00000
11
26.39639
21
-22.34473
31
-0.00000
12
31.71416
22
11.14853
32
0.00000
13
31.71416
23
11.14853
33
0.00000
0
3DFACE
8
layer1
62
1
10
26.39639
20
0.33350
30
0.00000
11
26.39639
21
4.44863
31
0.00000
12
23.10000
22
0.33350
32
0.00000
13
23.10000
23
0.33350
33
0.00000
0
3DFACE
8
layer1
62
1
10
26.39639
20
-6.60567
30
-0.00000
11
26.39639
21
-2.49053
31
-0.00000
12
23.10000
22
-6.60567
32
-0.00000
13
23.10000
23
-6.60567
33
-0.00000
0
3DFACE
8
layer1
62
1
10
13.28945
20
21.43770
30
0.00000
11
10.89287
21
-20.69714
31
-0.00000
12
13.28945
22
7.08076
32
0.00000
13
13.28945
23
7.08076
33
0.00000
0
3DFACE
8
layer1
62
1
10
40.08906
20
17.81670
30
0.00000
11
35.73093
21
18.06575
31
0.00000
12
39.27539
22
12.53691
32
0.00000
13
39.27539
23
12.53691
33
0.00000
0
3DFACE
8
layer1
62
1
10
41.04619
20
6.07627
30
0.00000
11
41.04619
21
11.14853
31
0.00000
12
31.71416
22
6.07627
32
0.00000
13
31.71416
23
6.07627
33
0.00000
0
3DFACE
8
layer1
62
1
10
39.84980
20
-13.54482
30
-0.00000
11
39.84980
21
4.44863
31
0.00000
12
35.15703
22
-13.54482
32
-0.00000
13
35.15703
23
-13.54482
33
-0.00000
0
3DFACE
8
layer1
62
1
10
39.61055
20
-20.48399
30
-0.00000
11
39.61055
21
-15.41172
31
-0.00000
12
31.71416
22
-20.48399
32
-0.00000
13
31.71416
23
-20.48399
33
-0.00000
0
3DFACE
8
layer1
62
1
10
14.59209
20
-15.41797
30
25.00000
11
15.92131
21
-19.88308
31
25.00000
12
14.24529
22
-26.73469
32
25.00000
13
14.24529
23
-26.73469
33
25.00000
0
3DFACE
8
layer1
62
1
10
14.24529
20
-26.73469
30
25.00000
11
15.92131
21
-19.88308
31
25.00000
12
17.78223
22
-23.78037
32
25.00000
13
17.78223
23
-23.78037
33
25.00000
0
3DFACE
8
layer1
62
1
10
14.24529
20
-26.73469
30
25.00000
11
17.78223
21
-23.78037
31
25.00000
12
18.93867
22
-31.73223
32
25.00000
13
18.93867
23
-31.73223
33
25.00000
0
3DFACE
8
layer1
62
1
10
18.93867
20
-31.73223
30
25.00000
11
17.78223
21
-23.78037
31
25.00000
12
17.78223
22
-21.14824
32
25.00000
13
17.78223
23
-21.14824
33
25.00000
0
3DFACE
8
layer1
62
1
10
18.93867
20
-31.73223
30
25.00000
11
17.78223
21
-21.14824
31
25.00000
12
19.75010
22
-25.74824
32
25.00000
13
19.75010
23
-25.74824
33
25.00000
0
3DFACE
8
layer1
62
1
10
19.75010
20
-25.74824
30
25.00000
11
17.78223
21
-21.14824
31
25.00000
12
26.39639
22
-22.34473
32
25.00000
13
26.39639
23
-22.34473
33
25.00000
0
3DFACE
8
layer1
62
1
10
19.75010
20
-25.74824
30
25.00000
11
26.39639
21
-22.34473
31
25.00000
12
31.71416
22
-20.48399
32
25.00000
13
31.71416
23
-20.48399
33
25.00000
0
3DFACE
8
layer1
62
1
10
31.71416
20
-20.48399
30
25.00000
11
26.39639
21
-22.34473
31
25.00000
12
31.71416
22
-15.41172
32
25.00000
13
31.71416
23
-15.41172
33
25.00000
0
3DFACE
8
layer1
62
1
10
31.71416
20
-20.48399
30
25.00000
11
31.71416
21
-15.41172
31
25.00000
12
39.61055
22
-15.41172
32
25.00000
13
39.61055
23
-15.41172
33
25.00000
0
3DFACE
8
layer1
62
1
10
31.71416
20
4.44863
30
25.00000
11
39.84980
21
4.44863
31
25.00000
12
34.53203
22
0.33350
32
25.00000
13
34.53203
23
0.33350
33
25.00000
0
3DFACE
8
layer1
62
1
10
34.53203
20
0.33350
30
25.00000
11
39.84980
21
4.44863
31
25.00000
12
35.15703
22
-13.54482
32
25.00000
13
35.15703
23
-13.54482
33
25.00000
0
3DFACE
8
layer1
62
1
10
34.53203
20
0.33350
30
25.00000
11
35.15703
21
-13.54482
31
25.00000
12
34.53203
22
-9.42969
32
25.00000
13
34.53203
23
-9.42969
33
25.00000
0
3DFACE
8
layer1
62
1
10
34.53203
20
-9.42969
30
25.00000
11
35.15703
21
-13.54482
31
25.00000
12
31.71416
22
-13.54482
32
25.00000
13
31.71416
23
-13.54482
33
25.00000
0
3DFACE
8
layer1
62
1
10
34.53203
20
-9.42969
30
25.00000
11
31.71416
21
-13.54482
31
25.00000
12
31.71416
22
-9.42969
32
25.00000
13
31.71416
23
-9.42969
33
25.00000
0
3DFACE
8
layer1
62
1
10
31.71416
20
-9.42969
30
25.00000
11
31.71416
21
-13.54482
31
25.00000
12
26.39639
22
-22.34473
32
25.00000
13
26.39639
23
-22.34473
33
25.00000
0
3DFACE
8
layer1
62
1
10
31.71416
20
-9.42969
30
25.00000
11
26.39639
21
-22.34473
31
25.00000
12
31.71416
22
-6.60567
32
25.00000
13
31.71416
23
-6.60567
33
25.00000
0
3DFACE
8
layer1
62
1
10
31.71416
20
-6.60567
30
25.00000
11
26.39639
21
-22.34473
31
25.00000
12
31.71416
22
-2.49053
32
25.00000
13
31.71416
23
-2.49053
33
25.00000
0
3DFACE
8
layer1
62
1
10
31.71416
20
-6.60567
30
25.00000
11
31.71416
21
-2.49053
31
25.00000
12
34.53203
22
-2.49053
32
25.00000
13
34.53203
23
-2.49053
33
25.00000
0
3DFACE
8
layer1
62
1
10
34.53203
20
-6.60567
30
25.00000
11
31.71416
21
-6.60567
31
25.00000
12
34.53203
22
-2.49053
32
25.00000
13
34.53203
23
-2.49053
33
25.00000
0
3DFACE
8
layer1
62
1
10
34.53203
20
-6.60567
30
25.00000
11
34.53203
21
-2.49053
31
25.00000
12
34.53203
22
0.33350
32
25.00000
13
34.53203
23
0.33350
33
25.00000
0
3DFACE
8
layer1
62
1
10
34.53203
20
-6.60567
30
25.00000
11
34.53203
21
0.33350
31
25.00000
12
34.53203
22
-9.42969
32
25.00000
13
34.53203
23
-9.42969
33
25.00000
0
3DFACE
8
layer1
62
1
10
34.53203
20
0.33350
30
25.00000
11
31.71416
21
0.33350
31
25.00000
12
31.71416
22
4.44863
32
25.00000
13
31.71416
23
4.44863
33
25.00000
0
3DFACE
8
layer1
62
1
10
31.71416
20
4.44863
30
25.00000
11
31.71416
21
0.33350
31
25.00000
12
26.39639
22
-22.34473
32
25.00000
13
26.39639
23
-22.34473
33
25.00000
0
3DFACE
8
layer1
62
1
10
31.71416
20
4.44863
30
25.00000
11
26.39639
21
-22.34473
31
25.00000
12
31.71416
22
6.07627
32
25.00000
13
31.71416
23
6.07627
33
25.00000
0
3DFACE
8
layer1
62
1
10
31.71416
20
6.07627
30
25.00000
11
26.39639
21
-22.34473
31
25.00000
12
31.71416
22
11.14853
32
25.00000
13
31.71416
23
11.14853
33
25.00000
0
3DFACE
8
layer1
62
1
10
31.71416
20
6.07627
30
25.00000
11
31.71416
21
11.14853
31
25.00000
12
41.04619
22
11.14853
32
25.00000
13
41.04619
23
11.14853
33
25.00000
0
3DFACE
8
layer1
62
1
10
33.34777
20
13.03227
30
25.00000
11
31.71416
21
13.25479
31
25.00000
12
31.07549
22
18.55391
32
25.00000
13
31.07549
23
18.55391
33
25.00000
0
3DFACE
8
layer1
62
1
10
31.07549
20
18.55391
30
25.00000
11
31.71416
21
13.25479
31
25.00000
12
26.39639
22
-22.34473
32
25.00000
13
26.39639
23
-22.34473
33
25.00000
0
3DFACE
8
layer1
62
1
10
31.07549
20
18.55391
30
25.00000
11
26.39639
21
-22.34473
31
25.00000
12
26.39639
22
13.77842
32
25.00000
13
26.39639
23
13.77842
33
25.00000
0
3DFACE
8
layer1
62
1
10
26.39639
20
13.77842
30
25.00000
11
26.39639
21
-22.34473
31
25.00000
12
26.39639
22
-20.48399
32
25.00000
13
26.39639
23
-20.48399
33
25.00000
0
3DFACE
8
layer1
62
1
10
26.39639
20
13.77842
30
25.00000
11
26.39639
21
-20.48399
31
25.00000
12
26.39639
22
-15.41172
32
25.00000
13
26.39639
23
-15.41172
33
25.00000
0
3DFACE
8
layer1
62
1
10
26.39639
20
-15.41172
30
25.00000
11
26.39639
21
-20.48399
31
25.00000
12
18.02148
22
-20.48399
32
25.00000
13
18.02148
23
-20.48399
33
25.00000
0
3DFACE
8
layer1
62
1
10
26.39639
20
-15.41172
30
25.00000
11
18.02148
21
-20.48399
31
25.00000
12
18.02148
22
-15.41172
32
25.00000
13
18.02148
23
-15.41172
33
25.00000
0
3DFACE
8
layer1
62
1
10
39.27539
20
12.53691
30
25.00000
11
37.12839
21
12.67333
31
25.00000
12
35.73093
22
18.06575
32
25.00000
13
35.73093
23
18.06575
33
25.00000
0
3DFACE
8
layer1
62
1
10
35.73093
20
18.06575
30
25.00000
11
37.12839
21
12.67333
31
25.00000
12
35.15252
22
12.83845
32
25.00000
13
35.15252
23
12.83845
33
25.00000
0
3DFACE
8
layer1
62
1
10
35.73093
20
18.06575
30
25.00000
11
35.15252
21
12.83845
31
25.00000
12
31.07549
22
18.55391
32
25.00000
13
31.07549
23
18.55391
33
25.00000
0
3DFACE
8
layer1
62
1
10
31.07549
20
18.55391
30
25.00000
11
35.15252
21
12.83845
31
25.00000
12
33.34777
22
13.03227
32
25.00000
13
33.34777
23
13.03227
33
25.00000
0
3DFACE
8
layer1
62
1
10
39.35681
20
19.81753
30
25.00000
11
39.42397
21
20.49828
31
25.00000
12
39.66816
22
19.33890
32
25.00000
13
39.66816
23
19.33890
33
25.00000
0
3DFACE
8
layer1
62
1
10
39.66816
20
19.33890
30
25.00000
11
39.42397
21
20.49828
31
25.00000
12
39.86963
22
21.38115
32
25.00000
13
39.86963
23
21.38115
33
25.00000
0
3DFACE
8
layer1
62
1
10
39.66816
20
19.33890
30
25.00000
11
39.86963
21
21.38115
31
25.00000
12
40.35801
22
19.06240
32
25.00000
13
40.35801
23
19.06240
33
25.00000
0
3DFACE
8
layer1
62
1
10
40.35801
20
19.06240
30
25.00000
11
39.86963
21
21.38115
31
25.00000
12
42.90684
22
7.00332
32
25.00000
13
42.90684
23
7.00332
33
25.00000
0
3DFACE
8
layer1
62
1
10
40.35801
20
19.06240
30
25.00000
11
42.90684
21
7.00332
31
25.00000
12
42.30230
22
9.13052
32
25.00000
13
42.30230
23
9.13052
33
25.00000
0
3DFACE
8
layer1
62
1
10
40.35801
20
19.06240
30
25.00000
11
42.30230
21
9.13052
31
25.00000
12
41.67598
22
11.84944
32
25.00000
13
41.67598
23
11.84944
33
25.00000
0
3DFACE
8
layer1
62
1
10
40.35801
20
19.06240
30
25.00000
11
41.67598
21
11.84944
31
25.00000
12
41.02788
22
15.16006
32
25.00000
13
41.02788
23
15.16006
33
25.00000
0
3DFACE
8
layer1
62
1
10
48.71683
20
-5.78514
30
25.00000
11
48.22471
21
-3.97354
31
25.00000
12
47.22538
22
13.97615
32
25.00000
13
47.22538
23
13.97615
33
25.00000
0
3DFACE
8
layer1
62
1
10
47.22538
20
13.97615
30
25.00000
11
48.22471
21
-3.97354
31
25.00000
12
42.18906
22
-32.68760
32
25.00000
13
42.18906
23
-32.68760
33
25.00000
0
3DFACE
8
layer1
62
1
10
47.22538
20
13.97615
30
25.00000
11
42.18906
21
-32.68760
31
25.00000
12
46.00752
22
22.40108
32
25.00000
13
46.00752
23
22.40108
33
25.00000
0
3DFACE
8
layer1
62
1
10
46.00752
20
22.40108
30
25.00000
11
42.18906
21
-32.68760
31
25.00000
12
42.90684
22
7.00332
32
25.00000
13
42.90684
23
7.00332
33
25.00000
0
3DFACE
8
layer1
62
1
10
46.00752
20
22.40108
30
25.00000
11
42.90684
21
7.00332
31
25.00000
12
39.86963
22
21.38115
32
25.00000
13
39.86963
23
21.38115
33
25.00000
0
3DFACE
8
layer1
62
1
10
22.43677
20
14.23283
30
25.00000
11
21.11279
21
14.45117
31
25.00000
12
20.87266
22
20.24756
32
25.00000
13
20.87266
23
20.24756
33
25.00000
0
3DFACE
8
layer1
62
1
10
20.87266
20
20.24756
30
25.00000
11
21.11279
21
14.45117
31
25.00000
12
20.10582
22
14.26095
32
25.00000
13
20.10582
23
14.26095
33
25.00000
0
3DFACE
8
layer1
62
1
10
20.87266
20
20.24756
30
25.00000
11
20.10582
21
14.26095
31
25.00000
12
19.24189
22
15.71494
32
25.00000
13
19.24189
23
15.71494
33
25.00000
0
3DFACE
8
layer1
62
1
10
19.24189
20
15.71494
30
25.00000
11
20.10582
21
14.26095
31
25.00000
12
19.45835
22
14.40818
32
25.00000
13
19.45835
23
14.40818
33
25.00000
0
3DFACE
8
layer1
62
1
10
19.24189
20
15.71494
30
25.00000
11
19.45835
21
14.40818
31
25.00000
12
19.17037
22
14.89284
32
25.00000
13
19.17037
23
14.89284
33
25.00000
0
3DFACE
8
layer1
62
1
10
31.07549
20
18.55391
30
25.00000
11
26.39639
21
13.77842
31
25.00000
12
26.12273
22
19.28118
32
25.00000
13
26.12273
23
19.28118
33
25.00000
0
3DFACE
8
layer1
62
1
10
26.12273
20
19.28118
30
25.00000
11
26.39639
21
13.77842
31
25.00000
12
25.07856
22
13.89645
32
25.00000
13
25.07856
23
13.89645
33
25.00000
0
3DFACE
8
layer1
62
1
10
26.12273
20
19.28118
30
25.00000
11
25.07856
21
13.89645
31
25.00000
12
20.87266
22
20.24756
32
25.00000
13
20.87266
23
20.24756
33
25.00000
0
3DFACE
8
layer1
62
1
10
20.87266
20
20.24756
30
25.00000
11
25.07856
21
13.89645
31
25.00000
12
23.75869
22
14.04793
32
25.00000
13
23.75869
23
14.04793
33
25.00000
0
3DFACE
8
layer1
62
1
10
20.87266
20
20.24756
30
25.00000
11
23.75869
21
14.04793
31
25.00000
12
22.43677
22
14.23283
32
25.00000
13
22.43677
23
14.23283
33
25.00000
0
3DFACE
8
layer1
62
1
10
26.39639
20
13.77842
30
25.00000
11
26.39639
21
-15.41172
31
25.00000
12
26.39639
22
-13.54482
32
25.00000
13
26.39639
23
-13.54482
33
25.00000
0
3DFACE
8
layer1
62
1
10
26.39639
20
13.77842
30
25.00000
11
26.39639
21
-13.54482
31
25.00000
12
26.39639
22
-9.42969
32
25.00000
13
26.39639
23
-9.42969
33
25.00000
0
3DFACE
8
layer1
62
1
10
26.39639
20
13.77842
30
25.00000
11
26.39639
21
-9.42969
31
25.00000
12
26.39639
22
-6.60567
32
25.00000
13
26.39639
23
-6.60567
33
25.00000
0
3DFACE
8
layer1
62
1
10
26.39639
20
13.77842
30
25.00000
11
26.39639
21
-6.60567
31
25.00000
12
26.39639
22
-2.49053
32
25.00000
13
26.39639
23
-2.49053
33
25.00000
0
3DFACE
8
layer1
62
1
10
26.39639
20
13.77842
30
25.00000
11
26.39639
21
-2.49053
31
25.00000
12
26.39639
22
0.33350
32
25.00000
13
26.39639
23
0.33350
33
25.00000
0
3DFACE
8
layer1
62
1
10
26.39639
20
13.77842
30
25.00000
11
26.39639
21
0.33350
31
25.00000
12
26.39639
22
4.44863
32
25.00000
13
26.39639
23
4.44863
33
25.00000
0
3DFACE
8
layer1
62
1
10
26.39639
20
13.77842
30
25.00000
11
26.39639
21
4.44863
31
25.00000
12
26.39639
22
6.07627
32
25.00000
13
26.39639
23
6.07627
33
25.00000
0
3DFACE
8
layer1
62
1
10
26.39639
20
13.77842
30
25.00000
11
26.39639
21
6.07627
31
25.00000
12
26.39639
22
11.14853
32
25.00000
13
26.39639
23
11.14853
33
25.00000
0
3DFACE
8
layer1
62
1
10
26.39639
20
6.07627
30
25.00000
11
17.35723
21
6.07627
31
25.00000
12
26.39639
22
11.14853
32
25.00000
13
26.39639
23
11.14853
33
25.00000
0
3DFACE
8
layer1
62
1
10
26.39639
20
11.14853
30
25.00000
11
17.35723
21
6.07627
31
25.00000
12
17.35723
22
7.08076
32
25.00000
13
17.35723
23
7.08076
33
25.00000
0
3DFACE
8
layer1
62
1
10
26.39639
20
11.14853
30
25.00000
11
17.35723
21
7.08076
31
25.00000
12
17.30371
22
11.14853
32
25.00000
13
17.30371
23
11.14853
33
25.00000
0
3DFACE
8
layer1
62
1
10
17.30371
20
11.14853
30
25.00000
11
17.35723
21
7.08076
31
25.00000
12
17.30371
22
7.08076
32
25.00000
13
17.30371
23
7.08076
33
25.00000
0
3DFACE
8
layer1
62
1
10
13.52871
20
2.00850
30
25.00000
11
13.52871
21
-4.78428
31
25.00000
12
10.89287
22
-20.69714
32
25.00000
13
10.89287
23
-20.69714
33
25.00000
0
3DFACE
8
layer1
62
1
10
13.52871
20
2.00850
30
25.00000
11
10.89287
21
-20.69714
31
25.00000
12
13.28945
22
7.08076
32
25.00000
13
13.28945
23
7.08076
33
25.00000
0
3DFACE
8
layer1
62
1
10
13.52871
20
2.00850
30
25.00000
11
13.28945
21
7.08076
31
25.00000
12
17.30371
22
7.08076
32
25.00000
13
17.30371
23
7.08076
33
25.00000
0
3DFACE
8
layer1
62
1
10
13.52871
20
2.00850
30
25.00000
11
17.30371
21
7.08076
31
25.00000
12
17.30371
22
6.07627
32
25.00000
13
17.30371
23
6.07627
33
25.00000
0
3DFACE
8
layer1
62
1
10
13.52871
20
2.00850
30
25.00000
11
17.30371
21
6.07627
31
25.00000
12
17.35723
22
6.07627
32
25.00000
13
17.35723
23
6.07627
33
25.00000
0
3DFACE
8
layer1
62
1
10
13.52871
20
2.00850
30
25.00000
11
17.35723
21
6.07627
31
25.00000
12
17.35723
22
2.00850
32
25.00000
13
17.35723
23
2.00850
33
25.00000
0
3DFACE
8
layer1
62
1
10
8.21094
20
-5.50205
30
25.00000
11
8.21094
21
2.00850
31
25.00000
12
8.83594
22
21.43770
32
25.00000
13
8.83594
23
21.43770
33
25.00000
0
3DFACE
8
layer1
62
1
10
8.83594
20
21.43770
30
25.00000
11
8.21094
21
2.00850
31
25.00000
12
7.97168
22
19.00772
32
25.00000
13
7.97168
23
19.00772
33
25.00000
0
3DFACE
8
layer1
62
1
10
8.83594
20
21.43770
30
25.00000
11
7.97168
21
19.00772
31
25.00000
12
7.47078
22
21.28582
32
25.00000
13
7.47078
23
21.28582
33
25.00000
0
3DFACE
8
layer1
62
1
10
7.47078
20
21.28582
30
25.00000
11
7.97168
21
19.00772
31
25.00000
12
7.03865
22
20.07083
32
25.00000
13
7.03865
23
20.07083
33
25.00000
0
3DFACE
8
layer1
62
1
10
7.47078
20
21.28582
30
25.00000
11
7.03865
21
20.07083
31
25.00000
12
6.87168
22
20.83020
32
25.00000
13
6.87168
23
20.83020
33
25.00000
0
3DFACE
8
layer1
62
1
10
7.97168
20
19.00772
30
25.00000
11
8.21094
21
2.00850
31
25.00000
12
7.97168
22
7.08076
32
25.00000
13
7.97168
23
7.08076
33
25.00000
0
3DFACE
8
layer1
62
1
10
7.97168
20
7.08076
30
25.00000
11
8.21094
21
2.00850
31
25.00000
12
4.67529
22
2.00850
32
25.00000
13
4.67529
23
2.00850
33
25.00000
0
3DFACE
8
layer1
62
1
10
7.97168
20
7.08076
30
25.00000
11
4.67529
21
2.00850
31
25.00000
12
-0.64248
22
7.08076
32
25.00000
13
-0.64248
23
7.08076
33
25.00000
0
3DFACE
8
layer1
62
1
10
-0.64248
20
7.08076
30
25.00000
11
4.67529
21
2.00850
31
25.00000
12
3.38507
22
-30.78990
32
25.00000
13
3.38507
23
-30.78990
33
25.00000
0
3DFACE
8
layer1
62
1
10
-0.64248
20
7.08076
30
25.00000
11
3.38507
21
-30.78990
31
25.00000
12
1.50552
22
-29.37737
32
25.00000
13
1.50552
23
-29.37737
33
25.00000
0
3DFACE
8
layer1
62
1
10
8.83594
20
21.43770
30
25.00000
11
13.28945
21
21.43770
31
25.00000
12
10.89287
22
-20.69714
32
25.00000
13
10.89287
23
-20.69714
33
25.00000
0
3DFACE
8
layer1
62
1
10
8.83594
20
21.43770
30
25.00000
11
10.89287
21
-20.69714
31
25.00000
12
8.88142
22
-13.61960
32
25.00000
13
8.88142
23
-13.61960
33
25.00000
0
3DFACE
8
layer1
62
1
10
8.83594
20
21.43770
30
25.00000
11
8.88142
21
-13.61960
31
25.00000
12
8.21094
22
-5.50205
32
25.00000
13
8.21094
23
-5.50205
33
25.00000
0
3DFACE
8
layer1
62
1
10
13.79456
20
-10.38503
30
25.00000
11
14.59209
21
-15.41797
31
25.00000
12
14.24529
22
-26.73469
32
25.00000
13
14.24529
23
-26.73469
33
25.00000
0
3DFACE
8
layer1
62
1
10
13.79456
20
-10.38503
30
25.00000
11
14.24529
21
-26.73469
31
25.00000
12
10.89287
22
-20.69714
32
25.00000
13
10.89287
23
-20.69714
33
25.00000
0
3DFACE
8
layer1
62
1
10
13.79456
20
-10.38503
30
25.00000
11
10.89287
21
-20.69714
31
25.00000
12
13.52871
22
-4.78428
32
25.00000
13
13.52871
23
-4.78428
33
25.00000
0
3DFACE
8
layer1
62
1
10
-0.64248
20
7.08076
30
25.00000
11
1.50552
21
-29.37737
31
25.00000
12
0.32589
22
-27.02315
32
25.00000
13
0.32589
23
-27.02315
33
25.00000
0
3DFACE
8
layer1
62
1
10
-0.64248
20
7.08076
30
25.00000
11
0.32589
21
-27.02315
31
25.00000
12
-0.15381
22
-23.72725
32
25.00000
13
-0.15381
23
-23.72725
33
25.00000
0
3DFACE
8
layer1
62
1
10
3.38507
20
-30.78990
30
25.00000
11
4.67529
21
2.00850
31
25.00000
12
5.39189
22
-23.39190
32
25.00000
13
5.39189
23
-23.39190
33
25.00000
0
3DFACE
8
layer1
62
1
10
3.38507
20
-30.78990
30
25.00000
11
5.39189
21
-23.39190
31
25.00000
12
5.56218
22
-24.61147
32
25.00000
13
5.56218
23
-24.61147
33
25.00000
0
3DFACE
8
layer1
62
1
10
3.38507
20
-30.78990
30
25.00000
11
5.56218
21
-24.61147
31
25.00000
12
5.87390
22
-25.48259
32
25.00000
13
5.87390
23
-25.48259
33
25.00000
0
3DFACE
8
layer1
62
1
10
3.38507
20
-30.78990
30
25.00000
11
5.87390
21
-25.48259
31
25.00000
12
5.96455
22
-31.26074
32
25.00000
13
5.96455
23
-31.26074
33
25.00000
0
3DFACE
8
layer1
62
1
10
11.85381
20
-26.17949
30
25.00000
11
11.57783
21
-31.26074
31
25.00000
12
6.92168
22
-26.17949
32
25.00000
13
6.92168
23
-26.17949
33
25.00000
0
3DFACE
8
layer1
62
1
10
6.92168
20
-26.17949
30
25.00000
11
11.57783
21
-31.26074
31
25.00000
12
5.96455
22
-31.26074
32
25.00000
13
5.96455
23
-31.26074
33
25.00000
0
3DFACE
8
layer1
62
1
10
6.92168
20
-26.17949
30
25.00000
11
5.96455
21
-31.26074
31
25.00000
12
6.32707
22
-26.00527
32
25.00000
13
6.32707
23
-26.00527
33
25.00000
0
3DFACE
8
layer1
62
1
10
6.32707
20
-26.00527
30
25.00000
11
5.96455
21
-31.26074
31
25.00000
12
5.87390
22
-25.48259
32
25.00000
13
5.87390
23
-25.48259
33
25.00000
0
3DFACE
8
layer1
62
1
10
26.39639
20
-2.49053
30
25.00000
11
23.10000
21
-6.60567
31
25.00000
12
23.10000
22
-2.49053
32
25.00000
13
23.10000
23
-2.49053
33
25.00000
0
3DFACE
8
layer1
62
1
10
23.10000
20
-2.49053
30
25.00000
11
23.10000
21
-6.60567
31
25.00000
12
17.78223
22
-13.54482
32
25.00000
13
17.78223
23
-13.54482
33
25.00000
0
3DFACE
8
layer1
62
1
10
23.10000
20
-2.49053
30
25.00000
11
17.78223
21
-13.54482
31
25.00000
12
23.10000
22
0.33350
32
25.00000
13
23.10000
23
0.33350
33
25.00000
0
3DFACE
8
layer1
62
1
10
23.10000
20
0.33350
30
25.00000
11
17.78223
21
-13.54482
31
25.00000
12
17.78223
22
4.44863
32
25.00000
13
17.78223
23
4.44863
33
25.00000
0
3DFACE
8
layer1
62
1
10
23.10000
20
0.33350
30
25.00000
11
17.78223
21
4.44863
31
25.00000
12
26.39639
22
4.44863
32
25.00000
13
26.39639
23
4.44863
33
25.00000
0
3DFACE
8
layer1
62
1
10
17.78223
20
-13.54482
30
25.00000
11
23.10000
21
-6.60567
31
25.00000
12
23.10000
22
-9.42969
32
25.00000
13
23.10000
23
-9.42969
33
25.00000
0
3DFACE
8
layer1
62
1
10
17.78223
20
-13.54482
30
25.00000
11
23.10000
21
-9.42969
31
25.00000
12
26.39639
22
-9.42969
32
25.00000
13
26.39639
23
-9.42969
33
25.00000
0
3DFACE
8
layer1
62
1
10
17.78223
20
-13.54482
30
25.00000
11
26.39639
21
-9.42969
31
25.00000
12
26.39639
22
-13.54482
32
25.00000
13
26.39639
23
-13.54482
33
25.00000
0
3DFACE
8
layer1
62
1
10
31.71416
20
-22.89629
30
25.00000
11
41.04619
21
-23.86523
31
25.00000
12
40.04023
22
-29.75986
32
25.00000
13
40.04023
23
-29.75986
33
25.00000
0
3DFACE
8
layer1
62
1
10
31.71416
20
-22.89629
30
25.00000
11
40.04023
21
-29.75986
31
25.00000
12
39.15553
22
-30.19810
32
25.00000
13
39.15553
23
-30.19810
33
25.00000
0
3DFACE
8
layer1
62
1
10
31.71416
20
-22.89629
30
25.00000
11
39.15553
21
-30.19810
31
25.00000
12
37.71445
22
-29.25586
32
25.00000
13
37.71445
23
-29.25586
33
25.00000
0
3DFACE
8
layer1
62
1
10
31.71416
20
-22.89629
30
25.00000
11
37.71445
21
-29.25586
31
25.00000
12
19.75010
22
-25.74824
32
25.00000
13
19.75010
23
-25.74824
33
25.00000
0
3DFACE
8
layer1
62
1
10
31.71416
20
-22.89629
30
25.00000
11
19.75010
21
-25.74824
31
25.00000
12
31.71416
22
-20.48399
32
25.00000
13
31.71416
23
-20.48399
33
25.00000
0
3DFACE
8
layer1
62
1
10
37.71445
20
-29.25586
30
25.00000
11
39.15553
21
-30.19810
31
25.00000
12
38.47300
22
-30.26018
32
25.00000
13
38.47300
23
-30.26018
33
25.00000
0
3DFACE
8
layer1
62
1
10
37.71445
20
-29.25586
30
25.00000
11
38.47300
21
-30.26018
31
25.00000
12
37.99264
22
-29.94610
32
25.00000
13
37.99264
23
-29.94610
33
25.00000
0
3DFACE
8
layer1
62
1
10
41.87496
20
6.73097
30
25.00000
11
42.90684
21
7.00332
31
25.00000
12
42.18906
22
4.67842
32
25.00000
13
42.18906
23
4.67842
33
25.00000
0
3DFACE
8
layer1
62
1
10
41.87496
20
6.73097
30
25.00000
11
42.18906
21
4.67842
31
25.00000
12
41.51608
22
5.56852
32
25.00000
13
41.51608
23
5.56852
33
25.00000
0
3DFACE
8
layer1
62
1
10
41.87496
20
6.73097
30
25.00000
11
41.51608
21
5.56852
31
25.00000
12
41.41138
22
6.25271
32
25.00000
13
41.41138
23
6.25271
33
25.00000
0
3DFACE
8
layer1
62
1
10
49.15740
20
6.55881
30
25.00000
11
51.80356
21
0.14905
31
25.00000
12
51.48320
22
-10.19492
32
25.00000
13
51.48320
23
-10.19492
33
25.00000
0
3DFACE
8
layer1
62
1
10
49.15740
20
6.55881
30
25.00000
11
51.48320
21
-10.19492
31
25.00000
12
50.34608
22
-8.89583
32
25.00000
13
50.34608
23
-8.89583
33
25.00000
0
3DFACE
8
layer1
62
1
10
49.15740
20
6.55881
30
25.00000
11
50.34608
21
-8.89583
31
25.00000
12
49.42395
22
-7.42590
32
25.00000
13
49.42395
23
-7.42590
33
25.00000
0
3DFACE
8
layer1
62
1
10
49.15740
20
6.55881
30
25.00000
11
49.42395
21
-7.42590
31
25.00000
12
48.71683
22
-5.78514
32
25.00000
13
48.71683
23
-5.78514
33
25.00000
0
3DFACE
8
layer1
62
1
10
49.15740
20
6.55881
30
25.00000
11
48.71683
21
-5.78514
31
25.00000
12
47.22538
22
13.97615
32
25.00000
13
47.22538
23
13.97615
33
25.00000
0
3DFACE
8
layer1
62
1
10
51.48320
20
-10.19492
30
25.00000
11
51.80356
21
0.14905
31
25.00000
12
55.16387
22
-5.25313
32
25.00000
13
55.16387
23
-5.25313
33
25.00000
0
3DFACE
8
layer1
62
1
10
42.18906
20
-32.68760
30
25.00000
11
48.22471
21
-3.97354
31
25.00000
12
48.22471
22
-32.68760
32
25.00000
13
48.22471
23
-32.68760
33
25.00000
0
3DFACE
8
layer1
62
1
10
42.90684
20
7.00332
30
25.00000
11
42.18906
21
-32.68760
31
25.00000
12
42.18906
22
4.67842
32
25.00000
13
42.18906
23
4.67842
33
25.00000
0
3DFACE
8
layer1
62
1
10
18.93867
20
-31.73223
30
25.00000
11
19.75010
21
-25.74824
31
25.00000
12
22.62148
22
-27.72803
32
25.00000
13
22.62148
23
-27.72803
33
25.00000
0
3DFACE
8
layer1
62
1
10
31.71416
20
-15.41172
30
25.00000
11
26.39639
21
-22.34473
31
25.00000
12
31.71416
22
-13.54482
32
25.00000
13
31.71416
23
-13.54482
33
25.00000
0
3DFACE
8
layer1
62
1
10
31.71416
20
-2.49053
30
25.00000
11
26.39639
21
-22.34473
31
25.00000
12
31.71416
22
0.33350
32
25.00000
13
31.71416
23
0.33350
33
25.00000
0
3DFACE
8
layer1
62
1
10
31.71416
20
11.14853
30
25.00000
11
26.39639
21
-22.34473
31
25.00000
12
31.71416
22
13.25479
32
25.00000
13
31.71416
23
13.25479
33
25.00000
0
3DFACE
8
layer1
62
1
10
23.10000
20
0.33350
30
25.00000
11
26.39639
21
4.44863
31
25.00000
12
26.39639
22
0.33350
32
25.00000
13
26.39639
23
0.33350
33
25.00000
0
3DFACE
8
layer1
62
1
10
23.10000
20
-6.60567
30
25.00000
11
26.39639
21
-2.49053
31
25.00000
12
26.39639
22
-6.60567
32
25.00000
13
26.39639
23
-6.60567
33
25.00000
0
3DFACE
8
layer1
62
1
10
13.28945
20
7.08076
30
25.00000
11
10.89287
21
-20.69714
31
25.00000
12
13.28945
22
21.43770
32
25.00000
13
13.28945
23
21.43770
33
25.00000
0
3DFACE
8
layer1
62
1
10
39.27539
20
12.53691
30
25.00000
11
35.73093
21
18.06575
31
25.00000
12
40.08906
22
17.81670
32
25.00000
13
40.08906
23
17.81670
33
25.00000
0
3DFACE
8
layer1
62
1
10
31.71416
20
6.07627
30
25.00000
11
41.04619
21
11.14853
31
25.00000
12
41.04619
22
6.07627
32
25.00000
13
41.04619
23
6.07627
33
25.00000
0
3DFACE
8
layer1
62
1
10
35.15703
20
-13.54482
30
25.00000
11
39.84980
21
4.44863
31
25.00000
12
39.84980
22
-13.54482
32
25.00000
13
39.84980
23
-13.54482
33
25.00000
0
3DFACE
8
layer1
62
1
10
31.71416
20
-20.48399
30
25.00000
11
39.61055
21
-15.41172
31
25.00000
12
39.61055
22
-20.48399
32
25.00000
13
39.61055
23
-20.48399
33
25.00000
0
3DFACE
8
layer1
62
1
10
18.93867
20
-31.73223
30
25.00000
11
22.62148
21
-27.72803
31
25.00000
12
22.62148
22
-27.72803
32
-0.00000
13
18.93867
23
-31.73223
33
-0.00000
0
3DFACE
8
layer1
62
1
10
14.24529
20
-26.73469
30
25.00000
11
18.93867
21
-31.73223
31
25.00000
12
18.93867
22
-31.73223
32
-0.00000
13
14.24529
23
-26.73469
33
-0.00000
0
3DFACE
8
layer1
62
1
10
10.89287
20
-20.69714
30
25.00000
11
14.24529
21
-26.73469
31
25.00000
12
14.24529
22
-26.73469
32
-0.00000
13
10.89287
23
-20.69714
33
-0.00000
0
3DFACE
8
layer1
62
1
10
8.88142
20
-13.61960
30
25.00000
11
10.89287
21
-20.69714
31
25.00000
12
10.89287
22
-20.69714
32
-0.00000
13
8.88142
23
-13.61960
33
-0.00000
0
3DFACE
8
layer1
62
1
10
8.21094
20
-5.50205
30
25.00000
11
8.88142
21
-13.61960
31
25.00000
12
8.88142
22
-13.61960
32
-0.00000
13
8.21094
23
-5.50205
33
-0.00000
0
3DFACE
8
layer1
62
1
10
8.21094
20
2.00850
30
25.00000
11
8.21094
21
-5.50205
31
25.00000
12
8.21094
22
-5.50205
32
-0.00000
13
8.21094
23
2.00850
33
0.00000
0
3DFACE
8
layer1
62
1
10
4.67529
20
2.00850
30
25.00000
11
8.21094
21
2.00850
31
25.00000
12
8.21094
22
2.00850
32
0.00000
13
4.67529
23
2.00850
33
0.00000
0
3DFACE
8
layer1
62
1
10
5.39189
20
-23.39190
30
25.00000
11
4.67529
21
2.00850
31
25.00000
12
4.67529
22
2.00850
32
0.00000
13
5.39189
23
-23.39190
33
-0.00000
0
3DFACE
8
layer1
62
1
10
5.56218
20
-24.61147
30
25.00000
11
5.39189
21
-23.39190
31
25.00000
12
5.39189
22
-23.39190
32
-0.00000
13
5.56218
23
-24.61147
33
-0.00000
0
3DFACE
8
layer1
62
1
10
5.87390
20
-25.48259
30
25.00000
11
5.56218
21
-24.61147
31
25.00000
12
5.56218
22
-24.61147
32
-0.00000
13
5.87390
23
-25.48259
33
-0.00000
0
3DFACE
8
layer1
62
1
10
6.32707
20
-26.00527
30
25.00000
11
5.87390
21
-25.48259
31
25.00000
12
5.87390
22
-25.48259
32
-0.00000
13
6.32707
23
-26.00527
33
-0.00000
0
3DFACE
8
layer1
62
1
10
6.92168
20
-26.17949
30
25.00000
11
6.32707
21
-26.00527
31
25.00000
12
6.32707
22
-26.00527
32
-0.00000
13
6.92168
23
-26.17949
33
-0.00000
0
3DFACE
8
layer1
62
1
10
11.85381
20
-26.17949
30
25.00000
11
6.92168
21
-26.17949
31
25.00000
12
6.92168
22
-26.17949
32
-0.00000
13
11.85381
23
-26.17949
33
-0.00000
0
3DFACE
8
layer1
62
1
10
11.57783
20
-31.26074
30
25.00000
11
11.85381
21
-26.17949
31
25.00000
12
11.85381
22
-26.17949
32
-0.00000
13
11.57783
23
-31.26074
33
-0.00000
0
3DFACE
8
layer1
62
1
10
5.96455
20
-31.26074
30
25.00000
11
11.57783
21
-31.26074
31
25.00000
12
11.57783
22
-31.26074
32
-0.00000
13
5.96455
23
-31.26074
33
-0.00000
0
3DFACE
8
layer1
62
1
10
3.38507
20
-30.78990
30
25.00000
11
5.96455
21
-31.26074
31
25.00000
12
5.96455
22
-31.26074
32
-0.00000
13
3.38507
23
-30.78990
33
-0.00000
0
3DFACE
8
layer1
62
1
10
1.50552
20
-29.37737
30
25.00000
11
3.38507
21
-30.78990
31
25.00000
12
3.38507
22
-30.78990
32
-0.00000
13
1.50552
23
-29.37737
33
-0.00000
0
3DFACE
8
layer1
62
1
10
0.32589
20
-27.02315
30
25.00000
11
1.50552
21
-29.37737
31
25.00000
12
1.50552
22
-29.37737
32
-0.00000
13
0.32589
23
-27.02315
33
-0.00000
0
3DFACE
8
layer1
62
1
10
-0.15381
20
-23.72725
30
25.00000
11
0.32589
21
-27.02315
31
25.00000
12
0.32589
22
-27.02315
32
-0.00000
13
-0.15381
23
-23.72725
33
0.00000
0
3DFACE
8
layer1
62
1
10
-0.64248
20
7.08076
30
25.00000
11
-0.15381
21
-23.72725
31
25.00000
12
-0.15381
22
-23.72725
32
0.00000
13
-0.64248
23
7.08076
33
0.00000
0
3DFACE
8
layer1
62
1
10
7.97168
20
7.08076
30
25.00000
11
-0.64248
21
7.08076
31
25.00000
12
-0.64248
22
7.08076
32
0.00000
13
7.97168
23
7.08076
33
0.00000
0
3DFACE
8
layer1
62
1
10
7.97168
20
19.00772
30
25.00000
11
7.97168
21
7.08076
31
25.00000
12
7.97168
22
7.08076
32
0.00000
13
7.97168
23
19.00772
33
0.00000
0
3DFACE
8
layer1
62
1
10
7.03865
20
20.07083
30
25.00000
11
7.97168
21
19.00772
31
25.00000
12
7.97168
22
19.00772
32
0.00000
13
7.03865
23
20.07083
33
0.00000
0
3DFACE
8
layer1
62
1
10
6.87168
20
20.83020
30
25.00000
11
7.03865
21
20.07083
31
25.00000
12
7.03865
22
20.07083
32
0.00000
13
6.87168
23
20.83020
33
0.00000
0
3DFACE
8
layer1
62
1
10
7.47078
20
21.28582
30
25.00000
11
6.87168
21
20.83020
31
25.00000
12
6.87168
22
20.83020
32
0.00000
13
7.47078
23
21.28582
33
0.00000
0
3DFACE
8
layer1
62
1
10
8.83594
20
21.43770
30
25.00000
11
7.47078
21
21.28582
31
25.00000
12
7.47078
22
21.28582
32
0.00000
13
8.83594
23
21.43770
33
0.00000
0
3DFACE
8
layer1
62
1
10
13.28945
20
21.43770
30
25.00000
11
8.83594
21
21.43770
31
25.00000
12
8.83594
22
21.43770
32
0.00000
13
13.28945
23
21.43770
33
0.00000
0
3DFACE
8
layer1
62
1
10
13.28945
20
7.08076
30
25.00000
11
13.28945
21
21.43770
31
25.00000
12
13.28945
22
21.43770
32
0.00000
13
13.28945
23
7.08076
33
0.00000
0
3DFACE
8
layer1
62
1
10
17.35723
20
7.08076
30
25.00000
11
13.28945
21
7.08076
31
25.00000
12
13.28945
22
7.08076
32
0.00000
13
17.35723
23
7.08076
33
0.00000
0
3DFACE
8
layer1
62
1
10
17.35723
20
2.00850
30
25.00000
11
17.35723
21
7.08076
31
25.00000
12
17.35723
22
7.08076
32
0.00000
13
17.35723
23
2.00850
33
0.00000
0
3DFACE
8
layer1
62
1
10
13.52871
20
2.00850
30
25.00000
11
17.35723
21
2.00850
31
25.00000
12
17.35723
22
2.00850
32
0.00000
13
13.52871
23
2.00850
33
0.00000
0
3DFACE
8
layer1
62
1
10
13.52871
20
-4.78428
30
25.00000
11
13.52871
21
2.00850
31
25.00000
12
13.52871
22
2.00850
32
0.00000
13
13.52871
23
-4.78428
33
-0.00000
0
3DFACE
8
layer1
62
1
10
13.79456
20
-10.38503
30
25.00000
11
13.52871
21
-4.78428
31
25.00000
12
13.52871
22
-4.78428
32
-0.00000
13
13.79456
23
-10.38503
33
-0.00000
0
3DFACE
8
layer1
62
1
10
14.59209
20
-15.41797
30
25.00000
11
13.79456
21
-10.38503
31
25.00000
12
13.79456
22
-10.38503
32
-0.00000
13
14.59209
23
-15.41797
33
-0.00000
0
3DFACE
8
layer1
62
1
10
15.92131
20
-19.88308
30
25.00000
11
14.59209
21
-15.41797
31
25.00000
12
14.59209
22
-15.41797
32
-0.00000
13
15.92131
23
-19.88308
33
-0.00000
0
3DFACE
8
layer1
62
1
10
17.78223
20
-23.78037
30
25.00000
11
15.92131
21
-19.88308
31
25.00000
12
15.92131
22
-19.88308
32
-0.00000
13
17.78223
23
-23.78037
33
-0.00000
0
3DFACE
8
layer1
62
1
10
17.78223
20
-21.14824
30
25.00000
11
17.78223
21
-23.78037
31
25.00000
12
17.78223
22
-23.78037
32
-0.00000
13
17.78223
23
-21.14824
33
-0.00000
0
3DFACE
8
layer1
62
1
10
26.39639
20
-22.34473
30
25.00000
11
17.78223
21
-21.14824
31
25.00000
12
17.78223
22
-21.14824
32
-0.00000
13
26.39639
23
-22.34473
33
-0.00000
0
3DFACE
8
layer1
62
1
10
26.39639
20
-20.48399
30
25.00000
11
26.39639
21
-22.34473
31
25.00000
12
26.39639
22
-22.34473
32
-0.00000
13
26.39639
23
-20.48399
33
-0.00000
0
3DFACE
8
layer1
62
1
10
18.02148
20
-20.48399
30
25.00000
11
26.39639
21
-20.48399
31
25.00000
12
26.39639
22
-20.48399
32
-0.00000
13
18.02148
23
-20.48399
33
-0.00000
0
3DFACE
8
layer1
62
1
10
18.02148
20
-15.41172
30
25.00000
11
18.02148
21
-20.48399
31
25.00000
12
18.02148
22
-20.48399
32
-0.00000
13
18.02148
23
-15.41172
33
-0.00000
0
3DFACE
8
layer1
62
1
10
26.39639
20
-15.41172
30
25.00000
11
18.02148
21
-15.41172
31
25.00000
12
18.02148
22
-15.41172
32
-0.00000
13
26.39639
23
-15.41172
33
-0.00000
0
3DFACE
8
layer1
62
1
10
26.39639
20
-13.54482
30
25.00000
11
26.39639
21
-15.41172
31
25.00000
12
26.39639
22
-15.41172
32
-0.00000
13
26.39639
23
-13.54482
33
-0.00000
0
3DFACE
8
layer1
62
1
10
17.78223
20
-13.54482
30
25.00000
11
26.39639
21
-13.54482
31
25.00000
12
26.39639
22
-13.54482
32
-0.00000
13
17.78223
23
-13.54482
33
-0.00000
0
3DFACE
8
layer1
62
1
10
17.78223
20
4.44863
30
25.00000
11
17.78223
21
-13.54482
31
25.00000
12
17.78223
22
-13.54482
32
-0.00000
13
17.78223
23
4.44863
33
0.00000
0
3DFACE
8
layer1
62
1
10
26.39639
20
4.44863
30
25.00000
11
17.78223
21
4.44863
31
25.00000
12
17.78223
22
4.44863
32
0.00000
13
26.39639
23
4.44863
33
0.00000
0
3DFACE
8
layer1
62
1
10
26.39639
20
6.07627
30
25.00000
11
26.39639
21
4.44863
31
25.00000
12
26.39639
22
4.44863
32
0.00000
13
26.39639
23
6.07627
33
0.00000
0
3DFACE
8
layer1
62
1
10
17.30371
20
6.07627
30
25.00000
11
26.39639
21
6.07627
31
25.00000
12
26.39639
22
6.07627
32
0.00000
13
17.30371
23
6.07627
33
0.00000
0
3DFACE
8
layer1
62
1
10
17.30371
20
11.14853
30
25.00000
11
17.30371
21
6.07627
31
25.00000
12
17.30371
22
6.07627
32
0.00000
13
17.30371
23
11.14853
33
0.00000
0
3DFACE
8
layer1
62
1
10
26.39639
20
11.14853
30
25.00000
11
17.30371
21
11.14853
31
25.00000
12
17.30371
22
11.14853
32
0.00000
13
26.39639
23
11.14853
33
0.00000
0
3DFACE
8
layer1
62
1
10
26.39639
20
13.77842
30
25.00000
11
26.39639
21
11.14853
31
25.00000
12
26.39639
22
11.14853
32
0.00000
13
26.39639
23
13.77842
33
0.00000
0
3DFACE
8
layer1
62
1
10
25.07856
20
13.89645
30
25.00000
11
26.39639
21
13.77842
31
25.00000
12
26.39639
22
13.77842
32
0.00000
13
25.07856
23
13.89645
33
0.00000
0
3DFACE
8
layer1
62
1
10
23.75869
20
14.04793
30
25.00000
11
25.07856
21
13.89645
31
25.00000
12
25.07856
22
13.89645
32
0.00000
13
23.75869
23
14.04793
33
0.00000
0
3DFACE
8
layer1
62
1
10
22.43677
20
14.23283
30
25.00000
11
23.75869
21
14.04793
31
25.00000
12
23.75869
22
14.04793
32
0.00000
13
22.43677
23
14.23283
33
0.00000
0
3DFACE
8
layer1
62
1
10
21.11279
20
14.45117
30
25.00000
11
22.43677
21
14.23283
31
25.00000
12
22.43677
22
14.23283
32
0.00000
13
21.11279
23
14.45117
33
0.00000
0
3DFACE
8
layer1
62
1
10
20.10582
20
14.26095
30
25.00000
11
21.11279
21
14.45117
31
25.00000
12
21.11279
22
14.45117
32
0.00000
13
20.10582
23
14.26095
33
0.00000
0
3DFACE
8
layer1
62
1
10
19.45835
20
14.40818
30
25.00000
11
20.10582
21
14.26095
31
25.00000
12
20.10582
22
14.26095
32
0.00000
13
19.45835
23
14.40818
33
0.00000
0
3DFACE
8
layer1
62
1
10
19.17037
20
14.89284
30
25.00000
11
19.45835
21
14.40818
31
25.00000
12
19.45835
22
14.40818
32
0.00000
13
19.17037
23
14.89284
33
0.00000
0
3DFACE
8
layer1
62
1
10
19.24189
20
15.71494
30
25.00000
11
19.17037
21
14.89284
31
25.00000
12
19.17037
22
14.89284
32
0.00000
13
19.24189
23
15.71494
33
0.00000
0
3DFACE
8
layer1
62
1
10
20.87266
20
20.24756
30
25.00000
11
19.24189
21
15.71494
31
25.00000
12
19.24189
22
15.71494
32
0.00000
13
20.87266
23
20.24756
33
0.00000
0
3DFACE
8
layer1
62
1
10
26.12273
20
19.28118
30
25.00000
11
20.87266
21
20.24756
31
25.00000
12
20.87266
22
20.24756
32
0.00000
13
26.12273
23
19.28118
33
0.00000
0
3DFACE
8
layer1
62
1
10
31.07549
20
18.55391
30
25.00000
11
26.12273
21
19.28118
31
25.00000
12
26.12273
22
19.28118
32
0.00000
13
31.07549
23
18.55391
33
0.00000
0
3DFACE
8
layer1
62
1
10
35.73093
20
18.06575
30
25.00000
11
31.07549
21
18.55391
31
25.00000
12
31.07549
22
18.55391
32
0.00000
13
35.73093
23
18.06575
33
0.00000
0
3DFACE
8
layer1
62
1
10
40.08906
20
17.81670
30
25.00000
11
35.73093
21
18.06575
31
25.00000
12
35.73093
22
18.06575
32
0.00000
13
40.08906
23
17.81670
33
0.00000
0
3DFACE
8
layer1
62
1
10
39.27539
20
12.53691
30
25.00000
11
40.08906
21
17.81670
31
25.00000
12
40.08906
22
17.81670
32
0.00000
13
39.27539
23
12.53691
33
0.00000
0
3DFACE
8
layer1
62
1
10
37.12839
20
12.67333
30
25.00000
11
39.27539
21
12.53691
31
25.00000
12
39.27539
22
12.53691
32
0.00000
13
37.12839
23
12.67333
33
0.00000
0
3DFACE
8
layer1
62
1
10
35.15252
20
12.83845
30
25.00000
11
37.12839
21
12.67333
31
25.00000
12
37.12839
22
12.67333
32
0.00000
13
35.15252
23
12.83845
33
0.00000
0
3DFACE
8
layer1
62
1
10
33.34777
20
13.03227
30
25.00000
11
35.15252
21
12.83845
31
25.00000
12
35.15252
22
12.83845
32
0.00000
13
33.34777
23
13.03227
33
0.00000
0
3DFACE
8
layer1
62
1
10
31.71416
20
13.25479
30
25.00000
11
33.34777
21
13.03227
31
25.00000
12
33.34777
22
13.03227
32
0.00000
13
31.71416
23
13.25479
33
0.00000
0
3DFACE
8
layer1
62
1
10
31.71416
20
11.14853
30
25.00000
11
31.71416
21
13.25479
31
25.00000
12
31.71416
22
13.25479
32
0.00000
13
31.71416
23
11.14853
33
0.00000
0
3DFACE
8
layer1
62
1
10
41.04619
20
11.14853
30
25.00000
11
31.71416
21
11.14853
31
25.00000
12
31.71416
22
11.14853
32
0.00000
13
41.04619
23
11.14853
33
0.00000
0
3DFACE
8
layer1
62
1
10
41.04619
20
6.07627
30
25.00000
11
41.04619
21
11.14853
31
25.00000
12
41.04619
22
11.14853
32
0.00000
13
41.04619
23
6.07627
33
0.00000
0
3DFACE
8
layer1
62
1
10
31.71416
20
6.07627
30
25.00000
11
41.04619
21
6.07627
31
25.00000
12
41.04619
22
6.07627
32
0.00000
13
31.71416
23
6.07627
33
0.00000
0
3DFACE
8
layer1
62
1
10
31.71416
20
4.44863
30
25.00000
11
31.71416
21
6.07627
31
25.00000
12
31.71416
22
6.07627
32
0.00000
13
31.71416
23
4.44863
33
0.00000
0
3DFACE
8
layer1
62
1
10
39.84980
20
4.44863
30
25.00000
11
31.71416
21
4.44863
31
25.00000
12
31.71416
22
4.44863
32
0.00000
13
39.84980
23
4.44863
33
0.00000
0
3DFACE
8
layer1
62
1
10
39.84980
20
-13.54482
30
25.00000
11
39.84980
21
4.44863
31
25.00000
12
39.84980
22
4.44863
32
0.00000
13
39.84980
23
-13.54482
33
-0.00000
0
3DFACE
8
layer1
62
1
10
35.15703
20
-13.54482
30
25.00000
11
39.84980
21
-13.54482
31
25.00000
12
39.84980
22
-13.54482
32
-0.00000
13
35.15703
23
-13.54482
33
-0.00000
0
3DFACE
8
layer1
62
1
10
31.71416
20
-13.54482
30
25.00000
11
35.15703
21
-13.54482
31
25.00000
12
35.15703
22
-13.54482
32
-0.00000
13
31.71416
23
-13.54482
33
-0.00000
0
3DFACE
8
layer1
62
1
10
31.71416
20
-15.41172
30
25.00000
11
31.71416
21
-13.54482
31
25.00000
12
31.71416
22
-13.54482
32
-0.00000
13
31.71416
23
-15.41172
33
-0.00000
0
3DFACE
8
layer1
62
1
10
39.61055
20
-15.41172
30
25.00000
11
31.71416
21
-15.41172
31
25.00000
12
31.71416
22
-15.41172
32
-0.00000
13
39.61055
23
-15.41172
33
-0.00000
0
3DFACE
8
layer1
62
1
10
39.61055
20
-20.48399
30
25.00000
11
39.61055
21
-15.41172
31
25.00000
12
39.61055
22
-15.41172
32
-0.00000
13
39.61055
23
-20.48399
33
-0.00000
0
3DFACE
8
layer1
62
1
10
31.71416
20
-20.48399
30
25.00000
11
39.61055
21
-20.48399
31
25.00000
12
39.61055
22
-20.48399
32
-0.00000
13
31.71416
23
-20.48399
33
-0.00000
0
3DFACE
8
layer1
62
1
10
31.71416
20
-22.89629
30
25.00000
11
31.71416
21
-20.48399
31
25.00000
12
31.71416
22
-20.48399
32
-0.00000
13
31.71416
23
-22.89629
33
-0.00000
0
3DFACE
8
layer1
62
1
10
41.04619
20
-23.86523
30
25.00000
11
31.71416
21
-22.89629
31
25.00000
12
31.71416
22
-22.89629
32
-0.00000
13
41.04619
23
-23.86523
33
-0.00000
0
3DFACE
8
layer1
62
1
10
40.04023
20
-29.75986
30
25.00000
11
41.04619
21
-23.86523
31
25.00000
12
41.04619
22
-23.86523
32
-0.00000
13
40.04023
23
-29.75986
33
-0.00000
0
3DFACE
8
layer1
62
1
10
39.15553
20
-30.19810
30
25.00000
11
40.04023
21
-29.75986
31
25.00000
12
40.04023
22
-29.75986
32
-0.00000
13
39.15553
23
-30.19810
33
-0.00000
0
3DFACE
8
layer1
62
1
10
38.47300
20
-30.26018
30
25.00000
11
39.15553
21
-30.19810
31
25.00000
12
39.15553
22
-30.19810
32
-0.00000
13
38.47300
23
-30.26018
33
-0.00000
0
3DFACE
8
layer1
62
1
10
37.99264
20
-29.94610
30
25.00000
11
38.47300
21
-30.26018
31
25.00000
12
38.47300
22
-30.26018
32
-0.00000
13
37.99264
23
-29.94610
33
-0.00000
0
3DFACE
8
layer1
62
1
10
37.71445
20
-29.25586
30
25.00000
11
37.99264
21
-29.94610
31
25.00000
12
37.99264
22
-29.94610
32
-0.00000
13
37.71445
23
-29.25586
33
-0.00000
0
3DFACE
8
layer1
62
1
10
19.75010
20
-25.74824
30
25.00000
11
37.71445
21
-29.25586
31
25.00000
12
37.71445
22
-29.25586
32
-0.00000
13
19.75010
23
-25.74824
33
-0.00000
0
3DFACE
8
layer1
62
1
10
22.62148
20
-27.72803
30
25.00000
11
19.75010
21
-25.74824
31
25.00000
12
19.75010
22
-25.74824
32
-0.00000
13
22.62148
23
-27.72803
33
-0.00000
0
3DFACE
8
layer1
62
1
10
39.35681
20
19.81753
30
25.00000
11
39.66816
21
19.33890
31
25.00000
12
39.66816
22
19.33890
32
0.00000
13
39.35681
23
19.81753
33
0.00000
0
3DFACE
8
layer1
62
1
10
39.42397
20
20.49828
30
25.00000
11
39.35681
21
19.81753
31
25.00000
12
39.35681
22
19.81753
32
0.00000
13
39.42397
23
20.49828
33
0.00000
0
3DFACE
8
layer1
62
1
10
39.86963
20
21.38115
30
25.00000
11
39.42397
21
20.49828
31
25.00000
12
39.42397
22
20.49828
32
0.00000
13
39.86963
23
21.38115
33
0.00000
0
3DFACE
8
layer1
62
1
10
46.00752
20
22.40108
30
25.00000
11
39.86963
21
21.38115
31
25.00000
12
39.86963
22
21.38115
32
0.00000
13
46.00752
23
22.40108
33
0.00000
0
3DFACE
8
layer1
62
1
10
47.22538
20
13.97615
30
25.00000
11
46.00752
21
22.40108
31
25.00000
12
46.00752
22
22.40108
32
0.00000
13
47.22538
23
13.97615
33
0.00000
0
3DFACE
8
layer1
62
1
10
49.15740
20
6.55881
30
25.00000
11
47.22538
21
13.97615
31
25.00000
12
47.22538
22
13.97615
32
0.00000
13
49.15740
23
6.55881
33
0.00000
0
3DFACE
8
layer1
62
1
10
51.80356
20
0.14905
30
25.00000
11
49.15740
21
6.55881
31
25.00000
12
49.15740
22
6.55881
32
0.00000
13
51.80356
23
0.14905
33
0.00000
0
3DFACE
8
layer1
62
1
10
55.16387
20
-5.25313
30
25.00000
11
51.80356
21
0.14905
31
25.00000
12
51.80356
22
0.14905
32
0.00000
13
55.16387
23
-5.25313
33
-0.00000
0
3DFACE
8
layer1
62
1
10
51.48320
20
-10.19492
30
25.00000
11
55.16387
21
-5.25313
31
25.00000
12
55.16387
22
-5.25313
32
-0.00000
13
51.48320
23
-10.19492
33
-0.00000
0
3DFACE
8
layer1
62
1
10
50.34608
20
-8.89583
30
25.00000
11
51.48320
21
-10.19492
31
25.00000
12
51.48320
22
-10.19492
32
-0.00000
13
50.34608
23
-8.89583
33
-0.00000
0
3DFACE
8
layer1
62
1
10
49.42395
20
-7.42590
30
25.00000
11
50.34608
21
-8.89583
31
25.00000
12
50.34608
22
-8.89583
32
-0.00000
13
49.42395
23
-7.42590
33
-0.00000
0
3DFACE
8
layer1
62
1
10
48.71683
20
-5.78514
30
25.00000
11
49.42395
21
-7.42590
31
25.00000
12
49.42395
22
-7.42590
32
-0.00000
13
48.71683
23
-5.78514
33
-0.00000
0
3DFACE
8
layer1
62
1
10
48.22471
20
-3.97354
30
25.00000
11
48.71683
21
-5.78514
31
25.00000
12
48.71683
22
-5.78514
32
-0.00000
13
48.22471
23
-3.97354
33
-0.00000
0
3DFACE
8
layer1
62
1
10
48.22471
20
-32.68760
30
25.00000
11
48.22471
21
-3.97354
31
25.00000
12
48.22471
22
-3.97354
32
-0.00000
13
48.22471
23
-32.68760
33
-0.00000
0
3DFACE
8
layer1
62
1
10
42.18906
20
-32.68760
30
25.00000
11
48.22471
21
-32.68760
31
25.00000
12
48.22471
22
-32.68760
32
-0.00000
13
42.18906
23
-32.68760
33
-0.00000
0
3DFACE
8
layer1
62
1
10
42.18906
20
4.67842
30
25.00000
11
42.18906
21
-32.68760
31
25.00000
12
42.18906
22
-32.68760
32
-0.00000
13
42.18906
23
4.67842
33
0.00000
0
3DFACE
8
layer1
62
1
10
41.51608
20
5.56852
30
25.00000
11
42.18906
21
4.67842
31
25.00000
12
42.18906
22
4.67842
32
0.00000
13
41.51608
23
5.56852
33
0.00000
0
3DFACE
8
layer1
62
1
10
41.41138
20
6.25271
30
25.00000
11
41.51608
21
5.56852
31
25.00000
12
41.51608
22
5.56852
32
0.00000
13
41.41138
23
6.25271
33
0.00000
0
3DFACE
8
layer1
62
1
10
41.87496
20
6.73097
30
25.00000
11
41.41138
21
6.25271
31
25.00000
12
41.41138
22
6.25271
32
0.00000
13
41.87496
23
6.73097
33
0.00000
0
3DFACE
8
layer1
62
1
10
42.90684
20
7.00332
30
25.00000
11
41.87496
21
6.73097
31
25.00000
12
41.87496
22
6.73097
32
0.00000
13
42.90684
23
7.00332
33
0.00000
0
3DFACE
8
layer1
62
1
10
42.30230
20
9.13052
30
25.00000
11
42.90684
21
7.00332
31
25.00000
12
42.90684
22
7.00332
32
0.00000
13
42.30230
23
9.13052
33
0.00000
0
3DFACE
8
layer1
62
1
10
41.67598
20
11.84944
30
25.00000
11
42.30230
21
9.13052
31
25.00000
12
42.30230
22
9.13052
32
0.00000
13
41.67598
23
11.84944
33
0.00000
0
3DFACE
8
layer1
62
1
10
41.02788
20
15.16006
30
25.00000
11
41.67598
21
11.84944
31
25.00000
12
41.67598
22
11.84944
32
0.00000
13
41.02788
23
15.16006
33
0.00000
0
3DFACE
8
layer1
62
1
10
40.35801
20
19.06240
30
25.00000
11
41.02788
21
15.16006
31
25.00000
12
41.02788
22
15.16006
32
0.00000
13
40.35801
23
19.06240
33
0.00000
0
3DFACE
8
layer1
62
1
10
39.66816
20
19.33890
30
25.00000
11
40.35801
21
19.06240
31
25.00000
12
40.35801
22
19.06240
32
0.00000
13
39.66816
23
19.33890
33
0.00000
0
3DFACE
8
layer1
62
1
10
23.10000
20
0.33350
30
25.00000
11
26.39639
21
0.33350
31
25.00000
12
26.39639
22
0.33350
32
0.00000
13
23.10000
23
0.33350
33
0.00000
0
3DFACE
8
layer1
62
1
10
23.10000
20
-2.49053
30
25.00000
11
23.10000
21
0.33350
31
25.00000
12
23.10000
22
0.33350
32
0.00000
13
23.10000
23
-2.49053
33
-0.00000
0
3DFACE
8
layer1
62
1
10
26.39639
20
-2.49053
30
25.00000
11
23.10000
21
-2.49053
31
25.00000
12
23.10000
22
-2.49053
32
-0.00000
13
26.39639
23
-2.49053
33
-0.00000
0
3DFACE
8
layer1
62
1
10
26.39639
20
0.33350
30
25.00000
11
26.39639
21
-2.49053
31
25.00000
12
26.39639
22
-2.49053
32
-0.00000
13
26.39639
23
0.33350
33
0.00000
0
3DFACE
8
layer1
62
1
10
23.10000
20
-6.60567
30
25.00000
11
26.39639
21
-6.60567
31
25.00000
12
26.39639
22
-6.60567
32
-0.00000
13
23.10000
23
-6.60567
33
-0.00000
0
3DFACE
8
layer1
62
1
10
23.10000
20
-9.42969
30
25.00000
11
23.10000
21
-6.60567
31
25.00000
12
23.10000
22
-6.60567
32
-0.00000
13
23.10000
23
-9.42969
33
-0.00000
0
3DFACE
8
layer1
62
1
10
26.39639
20
-9.42969
30
25.00000
11
23.10000
21
-9.42969
31
25.00000
12
23.10000
22
-9.42969
32
-0.00000
13
26.39639
23
-9.42969
33
-0.00000
0
3DFACE
8
layer1
62
1
10
26.39639
20
-6.60567
30
25.00000
11
26.39639
21
-9.42969
31
25.00000
12
26.39639
22
-9.42969
32
-0.00000
13
26.39639
23
-6.60567
33
-0.00000
0
3DFACE
8
layer1
62
1
10
31.71416
20
-6.60567
30
25.00000
11
34.53203
21
-6.60567
31
25.00000
12
34.53203
22
-6.60567
32
-0.00000
13
31.71416
23
-6.60567
33
-0.00000
0
3DFACE
8
layer1
62
1
10
31.71416
20
-9.42969
30
25.00000
11
31.71416
21
-6.60567
31
25.00000
12
31.71416
22
-6.60567
32
-0.00000
13
31.71416
23
-9.42969
33
-0.00000
0
3DFACE
8
layer1
62
1
10
34.53203
20
-9.42969
30
25.00000
11
31.71416
21
-9.42969
31
25.00000
12
31.71416
22
-9.42969
32
-0.00000
13
34.53203
23
-9.42969
33
-0.00000
0
3DFACE
8
layer1
62
1
10
34.53203
20
-6.60567
30
25.00000
11
34.53203
21
-9.42969
31
25.00000
12
34.53203
22
-9.42969
32
-0.00000
13
34.53203
23
-6.60567
33
-0.00000
0
3DFACE
8
layer1
62
1
10
31.71416
20
-2.49053
30
25.00000
11
31.71416
21
0.33350
31
25.00000
12
31.71416
22
0.33350
32
0.00000
13
31.71416
23
-2.49053
33
-0.00000
0
3DFACE
8
layer1
62
1
10
34.53203
20
-2.49053
30
25.00000
11
31.71416
21
-2.49053
31
25.00000
12
31.71416
22
-2.49053
32
-0.00000
13
34.53203
23
-2.49053
33
-0.00000
0
3DFACE
8
layer1
62
1
10
34.53203
20
0.33350
30
25.00000
11
34.53203
21
-2.49053
31
25.00000
12
34.53203
22
-2.49053
32
-0.00000
13
34.53203
23
0.33350
33
0.00000
0
3DFACE
8
layer1
62
1
10
31.71416
20
0.33350
30
25.00000
11
34.53203
21
0.33350
31
25.00000
12
34.53203
22
0.33350
32
0.00000
13
31.71416
23
0.33350
33
0.00000
0
3DFACE
8
layer1
62
1
10
-40.97134
20
-27.06467
30
0.00000
11
-40.36338
21
20.95918
31
0.00000
12
-46.39903
22
20.95918
32
0.00000
13
-46.39903
23
20.95918
33
0.00000
0
3DFACE
8
layer1
62
1
10
-40.36338
20
7.79863
30
0.00000
11
-40.36338
21
20.95918
31
0.00000
12
-40.97134
22
-27.06467
32
0.00000
13
-40.97134
23
-27.06467
33
0.00000
0
3DFACE
8
layer1
62
1
10
-40.36338
20
2.00850
30
0.00000
11
-40.36338
21
7.79863
31
0.00000
12
-40.97134
22
-27.06467
32
0.00000
13
-40.97134
23
-27.06467
33
0.00000
0
3DFACE
8
layer1
62
1
10
-23.61358
20
7.79863
30
0.00000
11
-40.36338
21
7.79863
31
0.00000
12
-40.36338
22
2.00850
32
0.00000
13
-40.36338
23
2.00850
33
0.00000
0
3DFACE
8
layer1
62
1
10
-23.61358
20
2.00850
30
0.00000
11
-23.61358
21
7.79863
31
0.00000
12
-40.36338
22
2.00850
32
0.00000
13
-40.36338
23
2.00850
33
0.00000
0
3DFACE
8
layer1
62
1
10
-43.08198
20
-24.24913
30
0.00000
11
-40.97134
21
-27.06467
31
0.00000
12
-46.39903
22
20.95918
32
0.00000
13
-46.39903
23
20.95918
33
0.00000
0
3DFACE
8
layer1
62
1
10
-44.57042
20
-21.11240
30
0.00000
11
-43.08198
21
-24.24913
31
0.00000
12
-46.39903
22
20.95918
32
0.00000
13
-46.39903
23
20.95918
33
0.00000
0
3DFACE
8
layer1
62
1
10
-45.37043
20
-18.23063
30
0.00000
11
-44.57042
21
-21.11240
31
0.00000
12
-46.39903
22
20.95918
32
0.00000
13
-46.39903
23
20.95918
33
0.00000
0
3DFACE
8
layer1
62
1
10
-45.94188
20
-14.54868
30
0.00000
11
-45.37043
21
-18.23063
31
0.00000
12
-46.39903
22
20.95918
32
0.00000
13
-46.39903
23
20.95918
33
0.00000
0
3DFACE
8
layer1
62
1
10
-46.28474
20
-10.06656
30
0.00000
11
-45.94188
21
-14.54868
31
0.00000
12
-46.39903
22
20.95918
32
0.00000
13
-46.39903
23
20.95918
33
0.00000
0
3DFACE
8
layer1
62
1
10
-46.39903
20
-4.78428
30
0.00000
11
-46.28474
21
-10.06656
31
0.00000
12
-46.39903
22
20.95918
32
0.00000
13
-46.39903
23
20.95918
33
0.00000
0
3DFACE
8
layer1
62
1
10
-46.39903
20
2.00850
30
0.00000
11
-46.39903
21
-4.78428
31
0.00000
12
-46.39903
22
20.95918
32
0.00000
13
-46.39903
23
20.95918
33
0.00000
0
3DFACE
8
layer1
62
1
10
-46.39903
20
7.79863
30
0.00000
11
-46.39903
21
2.00850
31
0.00000
12
-46.39903
22
20.95918
32
0.00000
13
-46.39903
23
20.95918
33
0.00000
0
3DFACE
8
layer1
62
1
10
-40.36338
20
-4.78428
30
0.00000
11
-40.36338
21
2.00850
31
0.00000
12
-40.97134
22
-27.06467
32
0.00000
13
-40.97134
23
-27.06467
33
0.00000
0
3DFACE
8
layer1
62
1
10
-40.23029
20
-9.82070
30
0.00000
11
-40.36338
21
-4.78428
31
0.00000
12
-40.97134
22
-27.06467
32
0.00000
13
-40.97134
23
-27.06467
33
0.00000
0
3DFACE
8
layer1
62
1
10
-39.83101
20
-14.06035
30
0.00000
11
-40.23029
21
-9.82070
31
0.00000
12
-40.97134
22
-27.06467
32
0.00000
13
-40.97134
23
-27.06467
33
0.00000
0
3DFACE
8
layer1
62
1
10
-39.16555
20
-17.50322
30
0.00000
11
-39.83101
21
-14.06035
31
0.00000
12
-40.97134
22
-27.06467
32
0.00000
13
-40.97134
23
-27.06467
33
0.00000
0
3DFACE
8
layer1
62
1
10
-38.23852
20
-29.55904
30
0.00000
11
-39.16555
21
-17.50322
31
0.00000
12
-40.97134
22
-27.06467
32
0.00000
13
-40.97134
23
-27.06467
33
0.00000
0
3DFACE
8
layer1
62
1
10
-38.23389
20
-20.14932
30
0.00000
11
-39.16555
21
-17.50322
31
0.00000
12
-38.23852
22
-29.55904
32
0.00000
13
-38.23852
23
-29.55904
33
0.00000
0
3DFACE
8
layer1
62
1
10
-37.27671
20
-22.03637
30
0.00000
11
-38.23389
21
-20.14932
31
0.00000
12
-38.23852
22
-29.55904
32
0.00000
13
-38.23852
23
-29.55904
33
0.00000
0
3DFACE
8
layer1
62
1
10
-35.75723
20
-23.86667
30
0.00000
11
-37.27671
21
-22.03637
31
0.00000
12
-38.23852
22
-29.55904
32
0.00000
13
-38.23852
23
-29.55904
33
0.00000
0
3DFACE
8
layer1
62
1
10
-34.88350
20
-31.73223
30
0.00000
11
-35.75723
21
-23.86667
31
0.00000
12
-38.23852
22
-29.55904
32
0.00000
13
-38.23852
23
-29.55904
33
0.00000
0
3DFACE
8
layer1
62
1
10
-34.88350
20
-31.73223
30
0.00000
11
-31.03135
21
-27.35703
31
0.00000
12
-33.67545
22
-25.64023
32
0.00000
13
-33.67545
23
-25.64023
33
0.00000
0
3DFACE
8
layer1
62
1
10
-35.75723
20
-23.86667
30
0.00000
11
-34.88350
21
-31.73223
31
0.00000
12
-33.67545
22
-25.64023
32
0.00000
13
-33.67545
23
-25.64023
33
0.00000
0
3DFACE
8
layer1
62
1
10
-54.77383
20
2.00850
30
0.00000
11
-46.39903
21
2.00850
31
0.00000
12
-46.39903
22
7.79863
32
0.00000
13
-46.39903
23
7.79863
33
0.00000
0
3DFACE
8
layer1
62
1
10
-54.77383
20
7.79863
30
0.00000
11
-54.77383
21
2.00850
31
0.00000
12
-46.39903
22
7.79863
32
0.00000
13
-46.39903
23
7.79863
33
0.00000
0
3DFACE
8
layer1
62
1
10
-18.34319
20
-21.66338
30
0.00000
11
-19.59942
21
-28.14580
31
0.00000
12
-13.75040
22
-30.30537
32
0.00000
13
-13.75040
23
-30.30537
33
0.00000
0
3DFACE
8
layer1
62
1
10
-17.44588
20
-15.33770
30
0.00000
11
-18.34319
21
-21.66338
31
0.00000
12
-13.75040
22
-30.30537
32
0.00000
13
-13.75040
23
-30.30537
33
0.00000
0
3DFACE
8
layer1
62
1
10
-16.90750
20
-9.16875
30
0.00000
11
-17.44588
21
-15.33770
31
0.00000
12
-13.75040
22
-30.30537
32
0.00000
13
-13.75040
23
-30.30537
33
0.00000
0
3DFACE
8
layer1
62
1
10
-16.72803
20
-3.15654
30
0.00000
11
-16.90750
21
-9.16875
31
0.00000
12
-13.75040
22
-30.30537
32
0.00000
13
-13.75040
23
-30.30537
33
0.00000
0
3DFACE
8
layer1
62
1
10
-16.99268
20
2.10379
30
0.00000
11
-16.72803
21
-3.15654
31
0.00000
12
-13.75040
22
-30.30537
32
0.00000
13
-13.75040
23
-30.30537
33
0.00000
0
3DFACE
8
layer1
62
1
10
-13.72315
20
20.48681
30
0.00000
11
-16.99268
21
2.10379
31
0.00000
12
-13.75040
22
-30.30537
32
0.00000
13
-13.75040
23
-30.30537
33
0.00000
0
3DFACE
8
layer1
62
1
10
-12.48781
20
14.14912
30
0.00000
11
-13.72315
21
20.48681
31
0.00000
12
-13.75040
22
-30.30537
32
0.00000
13
-13.75040
23
-30.30537
33
0.00000
0
3DFACE
8
layer1
62
1
10
-12.23313
20
-23.37663
30
0.00000
11
-12.48781
21
14.14912
31
0.00000
12
-13.75040
22
-30.30537
32
0.00000
13
-13.75040
23
-30.30537
33
0.00000
0
3DFACE
8
layer1
62
1
10
-17.55945
20
7.43554
30
0.00000
11
-16.99268
21
2.10379
31
0.00000
12
-13.72315
22
20.48681
32
0.00000
13
-13.72315
23
20.48681
33
0.00000
0
3DFACE
8
layer1
62
1
10
-18.42837
20
12.83874
30
0.00000
11
-17.55945
21
7.43554
31
0.00000
12
-13.72315
22
20.48681
32
0.00000
13
-13.72315
23
20.48681
33
0.00000
0
3DFACE
8
layer1
62
1
10
-19.59942
20
18.31338
30
0.00000
11
-18.42837
21
12.83874
31
0.00000
12
-13.72315
22
20.48681
32
0.00000
13
-13.72315
23
20.48681
33
0.00000
0
3DFACE
8
layer1
62
1
10
-10.97316
20
3.10176
30
0.00000
11
-10.70486
21
-9.02789
31
0.00000
12
-10.69385
22
-1.60791
32
0.00000
13
-10.69385
23
-1.60791
33
0.00000
0
3DFACE
8
layer1
62
1
10
-11.21795
20
-16.28413
30
0.00000
11
-10.70486
21
-9.02789
31
0.00000
12
-10.97316
22
3.10176
32
0.00000
13
-10.97316
23
3.10176
33
0.00000
0
3DFACE
8
layer1
62
1
10
-11.57115
20
8.35410
30
0.00000
11
-11.21795
21
-16.28413
31
0.00000
12
-10.97316
22
3.10176
32
0.00000
13
-10.97316
23
3.10176
33
0.00000
0
3DFACE
8
layer1
62
1
10
-12.23313
20
-23.37663
30
0.00000
11
-11.21795
21
-16.28413
31
0.00000
12
-11.57115
22
8.35410
32
0.00000
13
-11.57115
23
8.35410
33
0.00000
0
3DFACE
8
layer1
62
1
10
-12.48781
20
14.14912
30
0.00000
11
-12.23313
21
-23.37663
31
0.00000
12
-11.57115
22
8.35410
32
0.00000
13
-11.57115
23
8.35410
33
0.00000
0
3DFACE
8
layer1
62
1
10
-46.39903
20
20.95918
30
25.00000
11
-40.36338
21
20.95918
31
25.00000
12
-40.97134
22
-27.06467
32
25.00000
13
-40.97134
23
-27.06467
33
25.00000
0
3DFACE
8
layer1
62
1
10
-40.97134
20
-27.06467
30
25.00000
11
-40.36338
21
20.95918
31
25.00000
12
-40.36338
22
7.79863
32
25.00000
13
-40.36338
23
7.79863
33
25.00000
0
3DFACE
8
layer1
62
1
10
-40.97134
20
-27.06467
30
25.00000
11
-40.36338
21
7.79863
31
25.00000
12
-40.36338
22
2.00850
32
25.00000
13
-40.36338
23
2.00850
33
25.00000
0
3DFACE
8
layer1
62
1
10
-40.36338
20
2.00850
30
25.00000
11
-40.36338
21
7.79863
31
25.00000
12
-23.61358
22
7.79863
32
25.00000
13
-23.61358
23
7.79863
33
25.00000
0
3DFACE
8
layer1
62
1
10
-40.36338
20
2.00850
30
25.00000
11
-23.61358
21
7.79863
31
25.00000
12
-23.61358
22
2.00850
32
25.00000
13
-23.61358
23
2.00850
33
25.00000
0
3DFACE
8
layer1
62
1
10
-46.39903
20
20.95918
30
25.00000
11
-40.97134
21
-27.06467
31
25.00000
12
-43.08198
22
-24.24913
32
25.00000
13
-43.08198
23
-24.24913
33
25.00000
0
3DFACE
8
layer1
62
1
10
-46.39903
20
20.95918
30
25.00000
11
-43.08198
21
-24.24913
31
25.00000
12
-44.57042
22
-21.11240
32
25.00000
13
-44.57042
23
-21.11240
33
25.00000
0
3DFACE
8
layer1
62
1
10
-46.39903
20
20.95918
30
25.00000
11
-44.57042
21
-21.11240
31
25.00000
12
-45.37043
22
-18.23063
32
25.00000
13
-45.37043
23
-18.23063
33
25.00000
0
3DFACE
8
layer1
62
1
10
-46.39903
20
20.95918
30
25.00000
11
-45.37043
21
-18.23063
31
25.00000
12
-45.94188
22
-14.54868
32
25.00000
13
-45.94188
23
-14.54868
33
25.00000
0
3DFACE
8
layer1
62
1
10
-46.39903
20
20.95918
30
25.00000
11
-45.94188
21
-14.54868
31
25.00000
12
-46.28474
22
-10.06656
32
25.00000
13
-46.28474
23
-10.06656
33
25.00000
0
3DFACE
8
layer1
62
1
10
-46.39903
20
20.95918
30
25.00000
11
-46.28474
21
-10.06656
31
25.00000
12
-46.39903
22
-4.78428
32
25.00000
13
-46.39903
23
-4.78428
33
25.00000
0
3DFACE
8
layer1
62
1
10
-46.39903
20
20.95918
30
25.00000
11
-46.39903
21
-4.78428
31
25.00000
12
-46.39903
22
2.00850
32
25.00000
13
-46.39903
23
2.00850
33
25.00000
0
3DFACE
8
layer1
62
1
10
-46.39903
20
20.95918
30
25.00000
11
-46.39903
21
2.00850
31
25.00000
12
-46.39903
22
7.79863
32
25.00000
13
-46.39903
23
7.79863
33
25.00000
0
3DFACE
8
layer1
62
1
10
-40.97134
20
-27.06467
30
25.00000
11
-40.36338
21
2.00850
31
25.00000
12
-40.36338
22
-4.78428
32
25.00000
13
-40.36338
23
-4.78428
33
25.00000
0
3DFACE
8
layer1
62
1
10
-40.97134
20
-27.06467
30
25.00000
11
-40.36338
21
-4.78428
31
25.00000
12
-40.23029
22
-9.82070
32
25.00000
13
-40.23029
23
-9.82070
33
25.00000
0
3DFACE
8
layer1
62
1
10
-40.97134
20
-27.06467
30
25.00000
11
-40.23029
21
-9.82070
31
25.00000
12
-39.83101
22
-14.06035
32
25.00000
13
-39.83101
23
-14.06035
33
25.00000
0
3DFACE
8
layer1
62
1
10
-40.97134
20
-27.06467
30
25.00000
11
-39.83101
21
-14.06035
31
25.00000
12
-39.16555
22
-17.50322
32
25.00000
13
-39.16555
23
-17.50322
33
25.00000
0
3DFACE
8
layer1
62
1
10
-40.97134
20
-27.06467
30
25.00000
11
-39.16555
21
-17.50322
31
25.00000
12
-38.23852
22
-29.55904
32
25.00000
13
-38.23852
23
-29.55904
33
25.00000
0
3DFACE
8
layer1
62
1
10
-38.23852
20
-29.55904
30
25.00000
11
-39.16555
21
-17.50322
31
25.00000
12
-38.23389
22
-20.14932
32
25.00000
13
-38.23389
23
-20.14932
33
25.00000
0
3DFACE
8
layer1
62
1
10
-38.23852
20
-29.55904
30
25.00000
11
-38.23389
21
-20.14932
31
25.00000
12
-37.27671
22
-22.03637
32
25.00000
13
-37.27671
23
-22.03637
33
25.00000
0
3DFACE
8
layer1
62
1
10
-38.23852
20
-29.55904
30
25.00000
11
-37.27671
21
-22.03637
31
25.00000
12
-35.75723
22
-23.86667
32
25.00000
13
-35.75723
23
-23.86667
33
25.00000
0
3DFACE
8
layer1
62
1
10
-38.23852
20
-29.55904
30
25.00000
11
-35.75723
21
-23.86667
31
25.00000
12
-34.88350
22
-31.73223
32
25.00000
13
-34.88350
23
-31.73223
33
25.00000
0
3DFACE
8
layer1
62
1
10
-33.67545
20
-25.64023
30
25.00000
11
-31.03135
21
-27.35703
31
25.00000
12
-34.88350
22
-31.73223
32
25.00000
13
-34.88350
23
-31.73223
33
25.00000
0
3DFACE
8
layer1
62
1
10
-33.67545
20
-25.64023
30
25.00000
11
-34.88350
21
-31.73223
31
25.00000
12
-35.75723
22
-23.86667
32
25.00000
13
-35.75723
23
-23.86667
33
25.00000
0
3DFACE
8
layer1
62
1
10
-46.39903
20
7.79863
30
25.00000
11
-46.39903
21
2.00850
31
25.00000
12
-54.77383
22
2.00850
32
25.00000
13
-54.77383
23
2.00850
33
25.00000
0
3DFACE
8
layer1
62
1
10
-46.39903
20
7.79863
30
25.00000
11
-54.77383
21
2.00850
31
25.00000
12
-54.77383
22
7.79863
32
25.00000
13
-54.77383
23
7.79863
33
25.00000
0
3DFACE
8
layer1
62
1
10
-13.75040
20
-30.30537
30
25.00000
11
-19.59942
21
-28.14580
31
25.00000
12
-18.34319
22
-21.66338
32
25.00000
13
-18.34319
23
-21.66338
33
25.00000
0
3DFACE
8
layer1
62
1
10
-13.75040
20
-30.30537
30
25.00000
11
-18.34319
21
-21.66338
31
25.00000
12
-17.44588
22
-15.33770
32
25.00000
13
-17.44588
23
-15.33770
33
25.00000
0
3DFACE
8
layer1
62
1
10
-13.75040
20
-30.30537
30
25.00000
11
-17.44588
21
-15.33770
31
25.00000
12
-16.90750
22
-9.16875
32
25.00000
13
-16.90750
23
-9.16875
33
25.00000
0
3DFACE
8
layer1
62
1
10
-13.75040
20
-30.30537
30
25.00000
11
-16.90750
21
-9.16875
31
25.00000
12
-16.72803
22
-3.15654
32
25.00000
13
-16.72803
23
-3.15654
33
25.00000
0
3DFACE
8
layer1
62
1
10
-13.75040
20
-30.30537
30
25.00000
11
-16.72803
21
-3.15654
31
25.00000
12
-16.99268
22
2.10379
32
25.00000
13
-16.99268
23
2.10379
33
25.00000
0
3DFACE
8
layer1
62
1
10
-13.75040
20
-30.30537
30
25.00000
11
-16.99268
21
2.10379
31
25.00000
12
-13.72315
22
20.48681
32
25.00000
13
-13.72315
23
20.48681
33
25.00000
0
3DFACE
8
layer1
62
1
10
-13.75040
20
-30.30537
30
25.00000
11
-13.72315
21
20.48681
31
25.00000
12
-12.48781
22
14.14912
32
25.00000
13
-12.48781
23
14.14912
33
25.00000
0
3DFACE
8
layer1
62
1
10
-13.75040
20
-30.30537
30
25.00000
11
-12.48781
21
14.14912
31
25.00000
12
-12.23313
22
-23.37663
32
25.00000
13
-12.23313
23
-23.37663
33
25.00000
0
3DFACE
8
layer1
62
1
10
-13.72315
20
20.48681
30
25.00000
11
-16.99268
21
2.10379
31
25.00000
12
-17.55945
22
7.43554
32
25.00000
13
-17.55945
23
7.43554
33
25.00000
0
3DFACE
8
layer1
62
1
10
-13.72315
20
20.48681
30
25.00000
11
-17.55945
21
7.43554
31
25.00000
12
-18.42837
22
12.83874
32
25.00000
13
-18.42837
23
12.83874
33
25.00000
0
3DFACE
8
layer1
62
1
10
-13.72315
20
20.48681
30
25.00000
11
-18.42837
21
12.83874
31
25.00000
12
-19.59942
22
18.31338
32
25.00000
13
-19.59942
23
18.31338
33
25.00000
0
3DFACE
8
layer1
62
1
10
-10.69385
20
-1.60791
30
25.00000
11
-10.70486
21
-9.02789
31
25.00000
12
-10.97316
22
3.10176
32
25.00000
13
-10.97316
23
3.10176
33
25.00000
0
3DFACE
8
layer1
62
1
10
-10.97316
20
3.10176
30
25.00000
11
-10.70486
21
-9.02789
31
25.00000
12
-11.21795
22
-16.28413
32
25.00000
13
-11.21795
23
-16.28413
33
25.00000
0
3DFACE
8
layer1
62
1
10
-10.97316
20
3.10176
30
25.00000
11
-11.21795
21
-16.28413
31
25.00000
12
-11.57115
22
8.35410
32
25.00000
13
-11.57115
23
8.35410
33
25.00000
0
3DFACE
8
layer1
62
1
10
-11.57115
20
8.35410
30
25.00000
11
-11.21795
21
-16.28413
31
25.00000
12
-12.23313
22
-23.37663
32
25.00000
13
-12.23313
23
-23.37663
33
25.00000
0
3DFACE
8
layer1
62
1
10
-11.57115
20
8.35410
30
25.00000
11
-12.23313
21
-23.37663
31
25.00000
12
-12.48781
22
14.14912
32
25.00000
13
-12.48781
23
14.14912
33
25.00000
0
3DFACE
8
layer1
62
1
10
-46.39903
20
20.95918
30
25.00000
11
-46.39903
21
7.79863
31
25.00000
12
-46.39903
22
7.79863
32
0.00000
13
-46.39903
23
20.95918
33
0.00000
0
3DFACE
8
layer1
62
1
10
-40.36338
20
20.95918
30
25.00000
11
-46.39903
21
20.95918
31
25.00000
12
-46.39903
22
20.95918
32
0.00000
13
-40.36338
23
20.95918
33
0.00000
0
3DFACE
8
layer1
62
1
10
-40.36338
20
7.79863
30
25.00000
11
-40.36338
21
20.95918
31
25.00000
12
-40.36338
22
20.95918
32
0.00000
13
-40.36338
23
7.79863
33
0.00000
0
3DFACE
8
layer1
62
1
10
-23.61358
20
7.79863
30
25.00000
11
-40.36338
21
7.79863
31
25.00000
12
-40.36338
22
7.79863
32
0.00000
13
-23.61358
23
7.79863
33
0.00000
0
3DFACE
8
layer1
62
1
10
-23.61358
20
2.00850
30
25.00000
11
-23.61358
21
7.79863
31
25.00000
12
-23.61358
22
7.79863
32
0.00000
13
-23.61358
23
2.00850
33
0.00000
0
3DFACE
8
layer1
62
1
10
-40.36338
20
2.00850
30
25.00000
11
-23.61358
21
2.00850
31
25.00000
12
-23.61358
22
2.00850
32
0.00000
13
-40.36338
23
2.00850
33
0.00000
0
3DFACE
8
layer1
62
1
10
-40.36338
20
-4.78428
30
25.00000
11
-40.36338
21
2.00850
31
25.00000
12
-40.36338
22
2.00850
32
0.00000
13
-40.36338
23
-4.78428
33
0.00000
0
3DFACE
8
layer1
62
1
10
-40.23029
20
-9.82070
30
25.00000
11
-40.36338
21
-4.78428
31
25.00000
12
-40.36338
22
-4.78428
32
0.00000
13
-40.23029
23
-9.82070
33
0.00000
0
3DFACE
8
layer1
62
1
10
-39.83101
20
-14.06035
30
25.00000
11
-40.23029
21
-9.82070
31
25.00000
12
-40.23029
22
-9.82070
32
0.00000
13
-39.83101
23
-14.06035
33
0.00000
0
3DFACE
8
layer1
62
1
10
-39.16555
20
-17.50322
30
25.00000
11
-39.83101
21
-14.06035
31
25.00000
12
-39.83101
22
-14.06035
32
0.00000
13
-39.16555
23
-17.50322
33
0.00000
0
3DFACE
8
layer1
62
1
10
-38.23389
20
-20.14932
30
25.00000
11
-39.16555
21
-17.50322
31
25.00000
12
-39.16555
22
-17.50322
32
0.00000
13
-38.23389
23
-20.14932
33
0.00000
0
3DFACE
8
layer1
62
1
10
-37.27671
20
-22.03637
30
25.00000
11
-38.23389
21
-20.14932
31
25.00000
12
-38.23389
22
-20.14932
32
0.00000
13
-37.27671
23
-22.03637
33
0.00000
0
3DFACE
8
layer1
62
1
10
-35.75723
20
-23.86667
30
25.00000
11
-37.27671
21
-22.03637
31
25.00000
12
-37.27671
22
-22.03637
32
0.00000
13
-35.75723
23
-23.86667
33
0.00000
0
3DFACE
8
layer1
62
1
10
-33.67545
20
-25.64023
30
25.00000
11
-35.75723
21
-23.86667
31
25.00000
12
-35.75723
22
-23.86667
32
0.00000
13
-33.67545
23
-25.64023
33
0.00000
0
3DFACE
8
layer1
62
1
10
-31.03135
20
-27.35703
30
25.00000
11
-33.67545
21
-25.64023
31
25.00000
12
-33.67545
22
-25.64023
32
0.00000
13
-31.03135
23
-27.35703
33
0.00000
0
3DFACE
8
layer1
62
1
10
-34.88350
20
-31.73223
30
25.00000
11
-31.03135
21
-27.35703
31
25.00000
12
-31.03135
22
-27.35703
32
0.00000
13
-34.88350
23
-31.73223
33
0.00000
0
3DFACE
8
layer1
62
1
10
-38.23852
20
-29.55904
30
25.00000
11
-34.88350
21
-31.73223
31
25.00000
12
-34.88350
22
-31.73223
32
0.00000
13
-38.23852
23
-29.55904
33
0.00000
0
3DFACE
8
layer1
62
1
10
-40.97134
20
-27.06467
30
25.00000
11
-38.23852
21
-29.55904
31
25.00000
12
-38.23852
22
-29.55904
32
0.00000
13
-40.97134
23
-27.06467
33
0.00000
0
3DFACE
8
layer1
62
1
10
-43.08198
20
-24.24913
30
25.00000
11
-40.97134
21
-27.06467
31
25.00000
12
-40.97134
22
-27.06467
32
0.00000
13
-43.08198
23
-24.24913
33
0.00000
0
3DFACE
8
layer1
62
1
10
-44.57042
20
-21.11240
30
25.00000
11
-43.08198
21
-24.24913
31
25.00000
12
-43.08198
22
-24.24913
32
0.00000
13
-44.57042
23
-21.11240
33
0.00000
0
3DFACE
8
layer1
62
1
10
-45.37043
20
-18.23063
30
25.00000
11
-44.57042
21
-21.11240
31
25.00000
12
-44.57042
22
-21.11240
32
0.00000
13
-45.37043
23
-18.23063
33
0.00000
0
3DFACE
8
layer1
62
1
10
-45.94188
20
-14.54868
30
25.00000
11
-45.37043
21
-18.23063
31
25.00000
12
-45.37043
22
-18.23063
32
0.00000
13
-45.94188
23
-14.54868
33
0.00000
0
3DFACE
8
layer1
62
1
10
-46.28474
20
-10.06656
30
25.00000
11
-45.94188
21
-14.54868
31
25.00000
12
-45.94188
22
-14.54868
32
0.00000
13
-46.28474
23
-10.06656
33
0.00000
0
3DFACE
8
layer1
62
1
10
-46.39903
20
-4.78428
30
25.00000
11
-46.28474
21
-10.06656
31
25.00000
12
-46.28474
22
-10.06656
32
0.00000
13
-46.39903
23
-4.78428
33
0.00000
0
3DFACE
8
layer1
62
1
10
-46.39903
20
2.00850
30
25.00000
11
-46.39903
21
-4.78428
31
25.00000
12
-46.39903
22
-4.78428
32
0.00000
13
-46.39903
23
2.00850
33
0.00000
0
3DFACE
8
layer1
62
1
10
-54.77383
20
2.00850
30
25.00000
11
-46.39903
21
2.00850
31
25.00000
12
-46.39903
22
2.00850
32
0.00000
13
-54.77383
23
2.00850
33
0.00000
0
3DFACE
8
layer1
62
1
10
-54.77383
20
7.79863
30
25.00000
11
-54.77383
21
2.00850
31
25.00000
12
-54.77383
22
2.00850
32
0.00000
13
-54.77383
23
7.79863
33
0.00000
0
3DFACE
8
layer1
62
1
10
-46.39903
20
7.79863
30
25.00000
11
-54.77383
21
7.79863
31
25.00000
12
-54.77383
22
7.79863
32
0.00000
13
-46.39903
23
7.79863
33
0.00000
0
3DFACE
8
layer1
62
1
10
-12.48781
20
14.14912
30
25.00000
11
-13.72315
21
20.48681
31
25.00000
12
-13.72315
22
20.48681
32
0.00000
13
-12.48781
23
14.14912
33
0.00000
0
3DFACE
8
layer1
62
1
10
-11.57115
20
8.35410
30
25.00000
11
-12.48781
21
14.14912
31
25.00000
12
-12.48781
22
14.14912
32
0.00000
13
-11.57115
23
8.35410
33
0.00000
0
3DFACE
8
layer1
62
1
10
-10.97316
20
3.10176
30
25.00000
11
-11.57115
21
8.35410
31
25.00000
12
-11.57115
22
8.35410
32
0.00000
13
-10.97316
23
3.10176
33
0.00000
0
3DFACE
8
layer1
62
1
10
-10.69385
20
-1.60791
30
25.00000
11
-10.97316
21
3.10176
31
25.00000
12
-10.97316
22
3.10176
32
0.00000
13
-10.69385
23
-1.60791
33
0.00000
0
3DFACE
8
layer1
62
1
10
-10.70486
20
-9.02789
30
25.00000
11
-10.69385
21
-1.60791
31
25.00000
12
-10.69385
22
-1.60791
32
0.00000
13
-10.70486
23
-9.02789
33
0.00000
0
3DFACE
8
layer1
62
1
10
-11.21795
20
-16.28413
30
25.00000
11
-10.70486
21
-9.02789
31
25.00000
12
-10.70486
22
-9.02789
32
0.00000
13
-11.21795
23
-16.28413
33
0.00000
0
3DFACE
8
layer1
62
1
10
-12.23313
20
-23.37663
30
25.00000
11
-11.21795
21
-16.28413
31
25.00000
12
-11.21795
22
-16.28413
32
0.00000
13
-12.23313
23
-23.37663
33
0.00000
0
3DFACE
8
layer1
62
1
10
-13.75040
20
-30.30537
30
25.00000
11
-12.23313
21
-23.37663
31
25.00000
12
-12.23313
22
-23.37663
32
0.00000
13
-13.75040
23
-30.30537
33
0.00000
0
3DFACE
8
layer1
62
1
10
-19.59942
20
-28.14580
30
25.00000
11
-13.75040
21
-30.30537
31
25.00000
12
-13.75040
22
-30.30537
32
0.00000
13
-19.59942
23
-28.14580
33
0.00000
0
3DFACE
8
layer1
62
1
10
-18.34319
20
-21.66338
30
25.00000
11
-19.59942
21
-28.14580
31
25.00000
12
-19.59942
22
-28.14580
32
0.00000
13
-18.34319
23
-21.66338
33
0.00000
0
3DFACE
8
layer1
62
1
10
-17.44588
20
-15.33770
30
25.00000
11
-18.34319
21
-21.66338
31
25.00000
12
-18.34319
22
-21.66338
32
0.00000
13
-17.44588
23
-15.33770
33
0.00000
0
3DFACE
8
layer1
62
1
10
-16.90750
20
-9.16875
30
25.00000
11
-17.44588
21
-15.33770
31
25.00000
12
-17.44588
22
-15.33770
32
0.00000
13
-16.90750
23
-9.16875
33
0.00000
0
3DFACE
8
layer1
62
1
10
-16.72803
20
-3.15654
30
25.00000
11
-16.90750
21
-9.16875
31
25.00000
12
-16.90750
22
-9.16875
32
0.00000
13
-16.72803
23
-3.15654
33
0.00000
0
3DFACE
8
layer1
62
1
10
-16.99268
20
2.10379
30
25.00000
11
-16.72803
21
-3.15654
31
25.00000
12
-16.72803
22
-3.15654
32
0.00000
13
-16.99268
23
2.10379
33
0.00000
0
3DFACE
8
layer1
62
1
10
-17.55945
20
7.43554
30
25.00000
11
-16.99268
21
2.10379
31
25.00000
12
-16.99268
22
2.10379
32
0.00000
13
-17.55945
23
7.43554
33
0.00000
0
3DFACE
8
layer1
62
1
10
-18.42837
20
12.83874
30
25.00000
11
-17.55945
21
7.43554
31
25.00000
12
-17.55945
22
7.43554
32
0.00000
13
-18.42837
23
12.83874
33
0.00000
0
3DFACE
8
layer1
62
1
10
-19.59942
20
18.31338
30
25.00000
11
-18.42837
21
12.83874
31
25.00000
12
-18.42837
22
12.83874
32
0.00000
13
-19.59942
23
18.31338
33
0.00000
0
3DFACE
8
layer1
62
1
10
-13.72315
20
20.48681
30
25.00000
11
-19.59942
21
18.31338
31
25.00000
12
-19.59942
22
18.31338
32
0.00000
13
-13.72315
23
20.48681
33
0.00000
0
3DFACE
8
layer1
62
1
10
-84.48272
20
-12.10918
30
0.00000
11
-83.25899
21
15.21641
31
0.00000
12
-92.16602
22
15.21641
32
0.00000
13
-92.16602
23
15.21641
33
0.00000
0
3DFACE
8
layer1
62
1
10
-90.93253
20
-12.10918
30
0.00000
11
-84.48272
21
-12.10918
31
0.00000
12
-92.16602
22
15.21641
32
0.00000
13
-92.16602
23
15.21641
33
0.00000
0
3DFACE
8
layer1
62
1
10
-91.68751
20
-26.94463
30
0.00000
11
-83.73760
21
-26.94463
31
0.00000
12
-83.73760
22
-18.76172
32
0.00000
13
-83.73760
23
-18.76172
33
0.00000
0
3DFACE
8
layer1
62
1
10
-91.68751
20
-18.76172
30
0.00000
11
-91.68751
21
-26.94463
31
0.00000
12
-83.73760
22
-18.76172
32
0.00000
13
-83.73760
23
-18.76172
33
0.00000
0
3DFACE
8
layer1
62
1
10
-92.16602
20
15.21641
30
25.00000
11
-83.25899
21
15.21641
31
25.00000
12
-84.48272
22
-12.10918
32
25.00000
13
-84.48272
23
-12.10918
33
25.00000
0
3DFACE
8
layer1
62
1
10
-92.16602
20
15.21641
30
25.00000
11
-84.48272
21
-12.10918
31
25.00000
12
-90.93253
22
-12.10918
32
25.00000
13
-90.93253
23
-12.10918
33
25.00000
0
3DFACE
8
layer1
62
1
10
-83.73760
20
-18.76172
30
25.00000
11
-83.73760
21
-26.94463
31
25.00000
12
-91.68751
22
-26.94463
32
25.00000
13
-91.68751
23
-26.94463
33
25.00000
0
3DFACE
8
layer1
62
1
10
-83.73760
20
-18.76172
30
25.00000
11
-91.68751
21
-26.94463
31
25.00000
12
-91.68751
22
-18.76172
32
25.00000
13
-91.68751
23
-18.76172
33
25.00000
0
3DFACE
8
layer1
62
1
10
-90.93253
20
-12.10918
30
25.00000
11
-84.48272
21
-12.10918
31
25.00000
12
-84.48272
22
-12.10918
32
0.00000
13
-90.93253
23
-12.10918
33
0.00000
0
3DFACE
8
layer1
62
1
10
-92.16602
20
15.21641
30
25.00000
11
-90.93253
21
-12.10918
31
25.00000
12
-90.93253
22
-12.10918
32
0.00000
13
-92.16602
23
15.21641
33
0.00000
0
3DFACE
8
layer1
62
1
10
-83.25899
20
15.21641
30
25.00000
11
-92.16602
21
15.21641
31
25.00000
12
-92.16602
22
15.21641
32
0.00000
13
-83.25899
23
15.21641
33
0.00000
0
3DFACE
8
layer1
62
1
10
-84.48272
20
-12.10918
30
25.00000
11
-83.25899
21
15.21641
31
25.00000
12
-83.25899
22
15.21641
32
0.00000
13
-84.48272
23
-12.10918
33
0.00000
0
3DFACE
8
layer1
62
1
10
-91.68751
20
-26.94463
30
25.00000
11
-83.73760
21
-26.94463
31
25.00000
12
-83.73760
22
-26.94463
32
0.00000
13
-91.68751
23
-26.94463
33
0.00000
0
3DFACE
8
layer1
62
1
10
-91.68751
20
-18.76172
30
25.00000
11
-91.68751
21
-26.94463
31
25.00000
12
-91.68751
22
-26.94463
32
0.00000
13
-91.68751
23
-18.76172
33
0.00000
0
3DFACE
8
layer1
62
1
10
-83.73760
20
-18.76172
30
25.00000
11
-91.68751
21
-18.76172
31
25.00000
12
-91.68751
22
-18.76172
32
0.00000
13
-83.73760
23
-18.76172
33
0.00000
0
3DFACE
8
layer1
62
1
10
-83.73760
20
-26.94463
30
25.00000
11
-83.73760
21
-18.76172
31
25.00000
12
-83.73760
22
-18.76172
32
0.00000
13
-83.73760
23
-26.94463
33
0.00000
0
3DFACE
8
layer1
62
1
10
-146.98900
20
-12.10918
30
0.00000
11
-145.76520
21
15.21641
31
0.00000
12
-154.67230
22
15.21641
32
0.00000
13
-154.67230
23
15.21641
33
0.00000
0
3DFACE
8
layer1
62
1
10
-153.43880
20
-12.10918
30
0.00000
11
-146.98900
21
-12.10918
31
0.00000
12
-154.67230
22
15.21641
32
0.00000
13
-154.67230
23
15.21641
33
0.00000
0
3DFACE
8
layer1
62
1
10
-154.19380
20
-26.94463
30
0.00000
11
-146.24390
21
-26.94463
31
0.00000
12
-146.24390
22
-18.76172
32
0.00000
13
-146.24390
23
-18.76172
33
0.00000
0
3DFACE
8
layer1
62
1
10
-154.19380
20
-18.76172
30
0.00000
11
-154.19380
21
-26.94463
31
0.00000
12
-146.24390
22
-18.76172
32
0.00000
13
-146.24390
23
-18.76172
33
0.00000
0
3DFACE
8
layer1
62
1
10
-154.67230
20
15.21641
30
25.00000
11
-145.76520
21
15.21641
31
25.00000
12
-146.98900
22
-12.10918
32
25.00000
13
-146.98900
23
-12.10918
33
25.00000
0
3DFACE
8
layer1
62
1
10
-154.67230
20
15.21641
30
25.00000
11
-146.98900
21
-12.10918
31
25.00000
12
-153.43880
22
-12.10918
32
25.00000
13
-153.43880
23
-12.10918
33
25.00000
0
3DFACE
8
layer1
62
1
10
-146.24390
20
-18.76172
30
25.00000
11
-146.24390
21
-26.94463
31
25.00000
12
-154.19380
22
-26.94463
32
25.00000
13
-154.19380
23
-26.94463
33
25.00000
0
3DFACE
8
layer1
62
1
10
-146.24390
20
-18.76172
30
25.00000
11
-154.19380
21
-26.94463
31
25.00000
12
-154.19380
22
-18.76172
32
25.00000
13
-154.19380
23
-18.76172
33
25.00000
0
3DFACE
8
layer1
62
1
10
-153.43880
20
-12.10918
30
25.00000
11
-146.98900
21
-12.10918
31
25.00000
12
-146.98900
22
-12.10918
32
0.00000
13
-153.43880
23
-12.10918
33
0.00000
0
3DFACE
8
layer1
62
1
10
-154.67230
20
15.21641
30
25.00000
11
-153.43880
21
-12.10918
31
25.00000
12
-153.43880
22
-12.10918
32
0.00000
13
-154.67230
23
15.21641
33
0.00000
0
3DFACE
8
layer1
62
1
10
-145.76520
20
15.21641
30
25.00000
11
-154.67230
21
15.21641
31
25.00000
12
-154.67230
22
15.21641
32
0.00000
13
-145.76520
23
15.21641
33
0.00000
0
3DFACE
8
layer1
62
1
10
-146.98900
20
-12.10918
30
25.00000
11
-145.76520
21
15.21641
31
25.00000
12
-145.76520
22
15.21641
32
0.00000
13
-146.98900
23
-12.10918
33
0.00000
0
3DFACE
8
layer1
62
1
10
-154.19380
20
-26.94463
30
25.00000
11
-146.24390
21
-26.94463
31
25.00000
12
-146.24390
22
-26.94463
32
0.00000
13
-154.19380
23
-26.94463
33
0.00000
0
3DFACE
8
layer1
62
1
10
-154.19380
20
-18.76172
30
25.00000
11
-154.19380
21
-26.94463
31
25.00000
12
-154.19380
22
-26.94463
32
0.00000
13
-154.19380
23
-18.76172
33
0.00000
0
3DFACE
8
layer1
62
1
10
-146.24390
20
-18.76172
30
25.00000
11
-154.19380
21
-18.76172
31
25.00000
12
-154.19380
22
-18.76172
32
0.00000
13
-146.24390
23
-18.76172
33
0.00000
0
3DFACE
8
layer1
62
1
10
-146.24390
20
-26.94463
30
25.00000
11
-146.24390
21
-18.76172
31
25.00000
12
-146.24390
22
-18.76172
32
0.00000
13
-146.24390
23
-26.94463
33
0.00000
0
ENDSEC
0
EOF
